<?xml version="1.0" encoding="UTF-8" standalone="no"?>
<!-- Created with Inkscape (http://www.inkscape.org/) -->

<svg
   version="1.1"
   id="svg1"
   width="800"
   height="533.33331"
   viewBox="0 0 800 533.33331"
   sodipodi:docname="morris_edit.svg"
   inkscape:version="1.3.2 (091e20ef0f, 2023-11-25, custom)"
   xmlns:inkscape="http://www.inkscape.org/namespaces/inkscape"
   xmlns:sodipodi="http://sodipodi.sourceforge.net/DTD/sodipodi-0.dtd"
   xmlns="http://www.w3.org/2000/svg"
   xmlns:svg="http://www.w3.org/2000/svg">
  <defs
     id="defs1">
    <clipPath
       clipPathUnits="userSpaceOnUse"
       id="clipPath2">
      <path
         d="M 0,0 H 600 V 600 H 0 Z"
         id="path2" />
    </clipPath>
    <clipPath
       clipPathUnits="userSpaceOnUse"
       id="clipPath4">
      <path
         d="M 0,0 H 600 V 600 H 0 Z"
         id="path4" />
    </clipPath>
    <clipPath
       clipPathUnits="userSpaceOnUse"
       id="clipPath54">
      <path
         d="M 0,0 H 600 V 600 H 0 Z"
         id="path54" />
    </clipPath>
  </defs>
  <sodipodi:namedview
     id="namedview1"
     pagecolor="#505050"
     bordercolor="#eeeeee"
     borderopacity="1"
     inkscape:showpageshadow="0"
     inkscape:pageopacity="0"
     inkscape:pagecheckerboard="0"
     inkscape:deskcolor="#d1d1d1"
     inkscape:zoom="1.5207216"
     inkscape:cx="505.02341"
     inkscape:cy="327.14733"
     inkscape:window-width="2560"
     inkscape:window-height="1375"
     inkscape:window-x="0"
     inkscape:window-y="0"
     inkscape:window-maximized="1"
     inkscape:current-layer="g1">
    <inkscape:page
       x="0"
       y="0"
       inkscape:label="1"
       id="page1"
       width="800"
       height="533.33331"
       margin="0"
       bleed="0" />
  </sodipodi:namedview>
  <g
     id="g1"
     inkscape:groupmode="layer"
     inkscape:label="1">
    <path
       id="path1"
       d="M 0,0 H 600 V 400 H 0"
       style="fill:#ffffff;fill-opacity:1;fill-rule:evenodd;stroke:none"
       transform="matrix(1.3333333,0,0,-1.3333333,0,533.33333)"
       clip-path="url(#clipPath2)" />
    <path
       id="path3"
       d="M 58.82,44.21 H 588.19 V 388.19 H 58.82"
       style="fill:#ffffff;fill-opacity:1;fill-rule:evenodd;stroke:none"
       transform="matrix(1.3333333,0,0,-1.3333333,0,533.33333)"
       clip-path="url(#clipPath4)" />
    <path
       style="fill:#fdf5ca;stroke:#000000;stroke-width:1px;stroke-linecap:butt;stroke-linejoin:miter;stroke-opacity:1;fill-opacity:1"
       d="m 55.981754,425.34045 c -11.755113,7.81741 -31.031173,28.12906 -19.523275,46.44127 16.023095,25.49712 48.236934,40.98046 77.048871,35.09933 17.07287,-3.48494 32.46857,-11.93762 49.24387,-17.38037 23.54535,-7.6393 48.67351,-22.74045 56.28557,-48.85732 6.01083,-20.62308 -16.30597,-29.68557 -30.89329,-35.41791 -36.14989,-14.20572 -61.50315,-8.16048 -83.34372,1.42288 -21.840579,9.58336 -37.062912,10.87471 -48.818026,18.69212 z"
       id="path182"
       sodipodi:nodetypes="ssssssss" />
    <path
       style="fill:#caf2fd;stroke:#000000;stroke-width:1px;stroke-linecap:butt;stroke-linejoin:miter;stroke-opacity:1;fill-opacity:1"
       d="m 635.66832,387.99352 c -54.30898,-5.69379 -136.7753,-21.04684 -205.72322,30.67775 -40.11821,30.0966 -14.80497,80.99409 31.27117,92.72008 74.24768,18.89542 155.86222,27.58627 226.4819,-3.64469 44.16326,-19.53083 100.44738,-44.70291 72.46184,-89.46611 C 746.4413,396.33731 689.9773,393.68732 635.66832,387.99352 Z"
       id="path183"
       sodipodi:nodetypes="ssssss" />
    <path
       id="path5"
       d="M 73.32,44.21 V 388.19"
       style="fill:none;stroke:#000000;stroke-width:0.5;stroke-linecap:round;stroke-linejoin:round;stroke-miterlimit:10;stroke-dasharray:none;stroke-opacity:0.0980392"
       transform="matrix(1.3333333,0,0,-1.3333333,0,533.33333)" />
    <path
       id="path6"
       d="M 178.83,44.21 V 388.19"
       style="fill:none;stroke:#000000;stroke-width:0.5;stroke-linecap:round;stroke-linejoin:round;stroke-miterlimit:10;stroke-dasharray:none;stroke-opacity:0.0980392"
       transform="matrix(1.3333333,0,0,-1.3333333,0,533.33333)" />
    <path
       id="path7"
       d="M 284.33,44.21 V 388.19"
       style="fill:none;stroke:#000000;stroke-width:0.5;stroke-linecap:round;stroke-linejoin:round;stroke-miterlimit:10;stroke-dasharray:none;stroke-opacity:0.0980392"
       transform="matrix(1.3333333,0,0,-1.3333333,0,533.33333)" />
    <path
       style="fill:#fdcaca;stroke:#000000;stroke-width:1px;stroke-linecap:butt;stroke-linejoin:miter;stroke-opacity:1;fill-opacity:1"
       d="M 767.67249,13.900528 C 727.3028,-2.8652715 642.69575,12.180954 572.94155,8.4990633 506.33055,4.9830827 439.57166,9.2872984 372.93183,11.170135 c -44.51713,1.257784 -98.33808,8.202344 -125.11935,45.213824 -17.27452,23.873236 17.64138,51.349591 40.15194,63.235941 33.16492,17.51221 73.7603,13.7368 108.80255,27.08179 40.18421,15.30318 108.7616,16.97117 151.2668,13.21584 83.21556,-7.35209 150.49475,-6.52481 196.46986,-20.25307 45.97511,-13.72826 39.40502,-33.75491 47.92798,-71.284364 3.63884,-16.023043 15.61058,-37.713769 -24.75912,-54.479568 z"
       id="path185"
       sodipodi:nodetypes="ssssssssss" />
    <path
       id="path8"
       d="M 389.84,44.21 V 388.19"
       style="fill:none;stroke:#000000;stroke-width:0.5;stroke-linecap:round;stroke-linejoin:round;stroke-miterlimit:10;stroke-dasharray:none;stroke-opacity:0.0980392"
       transform="matrix(1.3333333,0,0,-1.3333333,0,533.33333)" />
    <path
       id="path9"
       d="M 495.34,44.21 V 388.19"
       style="fill:none;stroke:#000000;stroke-width:0.5;stroke-linecap:round;stroke-linejoin:round;stroke-miterlimit:10;stroke-dasharray:none;stroke-opacity:0.0980392"
       transform="matrix(1.3333333,0,0,-1.3333333,0,533.33333)" />
    <path
       id="path10"
       d="M 58.82,44.21 H 588.19"
       style="fill:none;stroke:#000000;stroke-width:1;stroke-linecap:round;stroke-linejoin:round;stroke-miterlimit:10;stroke-dasharray:none;stroke-opacity:1"
       transform="matrix(1.3333333,0,0,-1.3333333,0,533.33333)" />
    <path
       id="path11"
       d="m 73.32,44.21 v 4.72"
       style="fill:none;stroke:#000000;stroke-width:1;stroke-linecap:round;stroke-linejoin:round;stroke-miterlimit:10;stroke-dasharray:none;stroke-opacity:1"
       transform="matrix(1.3333333,0,0,-1.3333333,0,533.33333)" />
    <path
       id="path12"
       d="m 178.83,44.21 v 4.72"
       style="fill:none;stroke:#000000;stroke-width:1;stroke-linecap:round;stroke-linejoin:round;stroke-miterlimit:10;stroke-dasharray:none;stroke-opacity:1"
       transform="matrix(1.3333333,0,0,-1.3333333,0,533.33333)" />
    <path
       id="path13"
       d="m 284.33,44.21 v 4.72"
       style="fill:none;stroke:#000000;stroke-width:1;stroke-linecap:round;stroke-linejoin:round;stroke-miterlimit:10;stroke-dasharray:none;stroke-opacity:1"
       transform="matrix(1.3333333,0,0,-1.3333333,0,533.33333)" />
    <path
       id="path14"
       d="m 389.84,44.21 v 4.72"
       style="fill:none;stroke:#000000;stroke-width:1;stroke-linecap:round;stroke-linejoin:round;stroke-miterlimit:10;stroke-dasharray:none;stroke-opacity:1"
       transform="matrix(1.3333333,0,0,-1.3333333,0,533.33333)" />
    <path
       id="path15"
       d="m 495.34,44.21 v 4.72"
       style="fill:none;stroke:#000000;stroke-width:1;stroke-linecap:round;stroke-linejoin:round;stroke-miterlimit:10;stroke-dasharray:none;stroke-opacity:1"
       transform="matrix(1.3333333,0,0,-1.3333333,0,533.33333)" />
    <path
       id="path16"
       d="m 73.32,36.48 c 0,0 -0.9,0 -1.36,-0.9 0,0 -0.45,-0.88 -0.45,-2.66 0,0 0,-1.78 0.45,-2.67 0,0 0.46,-0.89 1.36,-0.89 0,0 0.91,0 1.36,0.89 0,0 0.46,0.89 0.46,2.67 0,0 0,1.78 -0.46,2.66 0,0 -0.45,0.9 -1.36,0.9 m 0,0.92 c 0,0 1.46,0 2.22,-1.15 0,0 0.77,-1.15 0.77,-3.33 0,0 0,-2.19 -0.77,-3.34 0,0 -0.76,-1.14 -2.22,-1.14 0,0 -1.45,0 -2.22,1.14 0,0 -0.76,1.15 -0.76,3.34 0,0 0,2.18 0.76,3.33 0,0 0.77,1.15 2.22,1.15 z"
       style="fill:#000000;fill-opacity:1;fill-rule:nonzero;stroke:none"
       transform="matrix(1.3333333,0,0,-1.3333333,0,533.33333)" />
    <path
       id="path17"
       d="m 179.89,33.26 c 0,0 0.84,-0.18 1.31,-0.74 0,0 0.47,-0.57 0.47,-1.4 0,0 0,-1.28 -0.88,-1.98 0,0 -0.88,-0.7 -2.5,-0.7 0,0 -0.54,0 -1.12,0.11 0,0 -0.57,0.1 -1.19,0.32 v 1.12 c 0,0 0.49,-0.28 1.07,-0.42 0,0 0.58,-0.15 1.21,-0.15 0,0 1.1,0 1.67,0.44 0,0 0.58,0.43 0.58,1.26 0,0 0,0.76 -0.54,1.19 0,0 -0.53,0.43 -1.49,0.43 h -1 v 0.96 h 1.05 c 0,0 0.86,0 1.32,0.34 0,0 0.46,0.35 0.46,1 0,0 0,0.67 -0.48,1.02 0,0 -0.47,0.36 -1.35,0.36 0,0 -0.48,0 -1.03,-0.11 0,0 -0.55,-0.1 -1.21,-0.32 v 1.04 c 0,0 0.67,0.19 1.25,0.28 0,0 0.58,0.09 1.1,0.09 0,0 1.33,0 2.1,-0.61 0,0 0.78,-0.6 0.78,-1.63 0,0 0,-0.72 -0.41,-1.21 0,0 -0.41,-0.5 -1.17,-0.69 z"
       style="fill:#000000;fill-opacity:1;fill-rule:nonzero;stroke:none"
       transform="matrix(1.3333333,0,0,-1.3333333,0,533.33333)" />
    <path
       id="path18"
       d="m 284.43,33.39 c 0,0 -0.78,0 -1.25,-0.54 0,0 -0.45,-0.54 -0.45,-1.47 0,0 0,-0.93 0.45,-1.48 0,0 0.47,-0.54 1.25,-0.54 0,0 0.79,0 1.25,0.54 0,0 0.46,0.55 0.46,1.48 0,0 0,0.93 -0.46,1.47 0,0 -0.46,0.54 -1.25,0.54 m 2.32,3.66 v -1.06 c 0,0 -0.44,0.21 -0.89,0.32 0,0 -0.44,0.11 -0.88,0.11 0,0 -1.16,0 -1.77,-0.78 0,0 -0.61,-0.78 -0.7,-2.36 0,0 0.34,0.5 0.86,0.76 0,0 0.51,0.28 1.13,0.28 0,0 1.31,0 2.06,-0.8 0,0 0.76,-0.78 0.76,-2.14 0,0 0,-1.33 -0.79,-2.14 0,0 -0.79,-0.8 -2.1,-0.8 0,0 -1.49,0 -2.29,1.14 0,0 -0.79,1.15 -0.79,3.34 0,0 0,2.04 0.97,3.26 0,0 0.97,1.22 2.61,1.22 0,0 0.44,0 0.89,-0.09 0,0 0.45,-0.08 0.93,-0.26 z"
       style="fill:#000000;fill-opacity:1;fill-rule:nonzero;stroke:none"
       transform="matrix(1.3333333,0,0,-1.3333333,0,533.33333)" />
    <path
       id="path19"
       d="m 387.41,28.78 v 1.07 c 0,0 0.44,-0.21 0.89,-0.32 0,0 0.45,-0.11 0.89,-0.11 0,0 1.16,0 1.76,0.78 0,0 0.62,0.78 0.7,2.36 0,0 -0.33,-0.49 -0.85,-0.76 0,0 -0.51,-0.27 -1.14,-0.27 0,0 -1.29,0 -2.05,0.78 0,0 -0.75,0.79 -0.75,2.15 0,0 0,1.33 0.78,2.14 0,0 0.79,0.8 2.1,0.8 0,0 1.5,0 2.28,-1.15 0,0 0.8,-1.15 0.8,-3.33 0,0 0,-2.05 -0.97,-3.27 0,0 -0.97,-1.21 -2.61,-1.21 0,0 -0.44,0 -0.89,0.08 0,0 -0.45,0.09 -0.94,0.26 m 2.33,3.67 c 0,0 0.79,0 1.24,0.54 0,0 0.47,0.53 0.47,1.47 0,0 0,0.93 -0.47,1.47 0,0 -0.45,0.55 -1.24,0.55 0,0 -0.79,0 -1.25,-0.55 0,0 -0.46,-0.54 -0.46,-1.47 0,0 0,-0.94 0.46,-1.47 0,0 0.46,-0.54 1.25,-0.54 z"
       style="fill:#000000;fill-opacity:1;fill-rule:nonzero;stroke:none"
       transform="matrix(1.3333333,0,0,-1.3333333,0,533.33333)" />
    <path
       id="path20"
       d="m 489.21,29.59 h 1.91 v 6.59 l -2.07,-0.42 v 1.07 l 2.06,0.42 h 1.17 v -7.66 h 1.91 v -0.98 h -4.98 z"
       style="fill:#000000;fill-opacity:1;fill-rule:nonzero;stroke:none"
       transform="matrix(1.3333333,0,0,-1.3333333,0,533.33333)" />
    <path
       id="path21"
       d="m 497.56,29.59 h 4.08 v -0.98 h -5.49 v 0.98 c 0,0 0.67,0.69 1.81,1.84 0,0 1.15,1.17 1.45,1.5 0,0 0.56,0.63 0.78,1.07 0,0 0.23,0.44 0.23,0.86 0,0 0,0.69 -0.49,1.12 0,0 -0.48,0.44 -1.26,0.44 0,0 -0.55,0 -1.16,-0.19 0,0 -0.61,-0.19 -1.3,-0.58 v 1.18 c 0,0 0.71,0.28 1.32,0.43 0,0 0.61,0.14 1.12,0.14 0,0 1.34,0 2.14,-0.67 0,0 0.8,-0.67 0.8,-1.79 0,0 0,-0.54 -0.2,-1.02 0,0 -0.2,-0.47 -0.72,-1.12 0,0 -0.15,-0.17 -0.92,-0.97 0,0 -0.78,-0.8 -2.19,-2.24 z"
       style="fill:#000000;fill-opacity:1;fill-rule:nonzero;stroke:none"
       transform="matrix(1.3333333,0,0,-1.3333333,0,533.33333)" />
    <path
       id="path22"
       d="m 315.18,4.6 v 12.3 h 1.47 v -5.54 c 0,0 0,-1.15 0.54,-1.74 0,0 0.55,-0.59 1.63,-0.59 0,0 1.18,0 1.76,0.67 0,0 0.6,0.67 0.6,2.01 v 5.19 h 1.47 v -6.86 c 0,0 0,-0.48 0.13,-0.71 0,0 0.14,-0.22 0.44,-0.22 0,0 0.07,0 0.2,0.04 0,0 0.12,0.05 0.35,0.14 V 8.12 c 0,0 -0.33,-0.19 -0.62,-0.27 0,0 -0.29,-0.09 -0.57,-0.09 0,0 -0.55,0 -0.87,0.31 0,0 -0.33,0.31 -0.45,0.95 0,0 -0.4,-0.63 -0.98,-0.95 0,0 -0.57,-0.31 -1.35,-0.31 0,0 -0.81,0 -1.39,0.31 0,0 -0.56,0.31 -0.89,0.93 V 4.6 Z"
       style="fill:#000000;fill-opacity:1;fill-rule:nonzero;stroke:none"
       transform="matrix(1.3333333,0,0,-1.3333333,0,533.33333)" />
    <path
       id="path23"
       d="m 331.83,17.91 -2.86,-1.54 2.86,-1.55 -0.46,-0.78 -2.68,1.61 v -3 h -0.9 v 3 l -2.68,-1.61 -0.46,0.78 2.86,1.55 -2.86,1.54 0.46,0.79 2.68,-1.62 v 3 h 0.9 v -3 l 2.68,1.62 z"
       style="fill:#000000;fill-opacity:1;fill-rule:nonzero;stroke:none"
       transform="matrix(1.3333333,0,0,-1.3333333,0,533.33333)" />
    <path
       id="path24"
       d="M 58.82,53.94 H 588.19"
       style="fill:none;stroke:#000000;stroke-width:0.5;stroke-linecap:round;stroke-linejoin:round;stroke-miterlimit:10;stroke-dasharray:none;stroke-opacity:0.0980392"
       transform="matrix(1.3333333,0,0,-1.3333333,0,533.33333)" />
    <path
       id="path25"
       d="M 58.82,121.6 H 588.19"
       style="fill:none;stroke:#000000;stroke-width:0.5;stroke-linecap:round;stroke-linejoin:round;stroke-miterlimit:10;stroke-dasharray:none;stroke-opacity:0.0980392"
       transform="matrix(1.3333333,0,0,-1.3333333,0,533.33333)" />
    <path
       id="path26"
       d="M 58.82,189.25 H 588.19"
       style="fill:none;stroke:#000000;stroke-width:0.5;stroke-linecap:round;stroke-linejoin:round;stroke-miterlimit:10;stroke-dasharray:none;stroke-opacity:0.0980392"
       transform="matrix(1.3333333,0,0,-1.3333333,0,533.33333)" />
    <path
       id="path27"
       d="M 58.82,256.91 H 588.19"
       style="fill:none;stroke:#000000;stroke-width:0.5;stroke-linecap:round;stroke-linejoin:round;stroke-miterlimit:10;stroke-dasharray:none;stroke-opacity:0.0980392"
       transform="matrix(1.3333333,0,0,-1.3333333,0,533.33333)" />
    <path
       id="path28"
       d="M 58.82,324.56 H 588.19"
       style="fill:none;stroke:#000000;stroke-width:0.5;stroke-linecap:round;stroke-linejoin:round;stroke-miterlimit:10;stroke-dasharray:none;stroke-opacity:0.0980392"
       transform="matrix(1.3333333,0,0,-1.3333333,0,533.33333)" />
    <path
       id="path29"
       d="M 58.82,44.21 V 388.19"
       style="fill:none;stroke:#000000;stroke-width:1;stroke-linecap:round;stroke-linejoin:round;stroke-miterlimit:10;stroke-dasharray:none;stroke-opacity:1"
       transform="matrix(1.3333333,0,0,-1.3333333,0,533.33333)" />
    <path
       id="path30"
       d="m 58.82,53.94 h 4.73"
       style="fill:none;stroke:#000000;stroke-width:1;stroke-linecap:round;stroke-linejoin:round;stroke-miterlimit:10;stroke-dasharray:none;stroke-opacity:1"
       transform="matrix(1.3333333,0,0,-1.3333333,0,533.33333)" />
    <path
       id="path31"
       d="m 58.82,121.6 h 4.73"
       style="fill:none;stroke:#000000;stroke-width:1;stroke-linecap:round;stroke-linejoin:round;stroke-miterlimit:10;stroke-dasharray:none;stroke-opacity:1"
       transform="matrix(1.3333333,0,0,-1.3333333,0,533.33333)" />
    <path
       id="path32"
       d="m 58.82,189.25 h 4.73"
       style="fill:none;stroke:#000000;stroke-width:1;stroke-linecap:round;stroke-linejoin:round;stroke-miterlimit:10;stroke-dasharray:none;stroke-opacity:1"
       transform="matrix(1.3333333,0,0,-1.3333333,0,533.33333)" />
    <path
       id="path33"
       d="m 58.82,256.91 h 4.73"
       style="fill:none;stroke:#000000;stroke-width:1;stroke-linecap:round;stroke-linejoin:round;stroke-miterlimit:10;stroke-dasharray:none;stroke-opacity:1"
       transform="matrix(1.3333333,0,0,-1.3333333,0,533.33333)" />
    <path
       id="path34"
       d="m 58.82,324.56 h 4.73"
       style="fill:none;stroke:#000000;stroke-width:1;stroke-linecap:round;stroke-linejoin:round;stroke-miterlimit:10;stroke-dasharray:none;stroke-opacity:1"
       transform="matrix(1.3333333,0,0,-1.3333333,0,533.33333)" />
    <path
       id="path35"
       d="m 46.83,57.49 c 0,0 -0.9,0 -1.36,-0.89 0,0 -0.45,-0.89 -0.45,-2.67 0,0 0,-1.78 0.45,-2.67 0,0 0.46,-0.88 1.36,-0.88 0,0 0.91,0 1.36,0.88 0,0 0.46,0.89 0.46,2.67 0,0 0,1.78 -0.46,2.67 0,0 -0.45,0.89 -1.36,0.89 m 0,0.93 c 0,0 1.46,0 2.22,-1.16 0,0 0.77,-1.14 0.77,-3.33 0,0 0,-2.18 -0.77,-3.33 0,0 -0.76,-1.15 -2.22,-1.15 0,0 -1.45,0 -2.22,1.15 0,0 -0.76,1.15 -0.76,3.33 0,0 0,2.19 0.76,3.33 0,0 0.77,1.16 2.22,1.16 z"
       style="fill:#000000;fill-opacity:1;fill-rule:nonzero;stroke:none"
       transform="matrix(1.3333333,0,0,-1.3333333,0,533.33333)" />
    <path
       id="path36"
       d="m 29.46,118.26 h 1.91 v 6.59 l -2.08,-0.42 v 1.07 l 2.06,0.42 h 1.17 v -7.66 h 1.91 v -0.98 h -4.97 z"
       style="fill:#000000;fill-opacity:1;fill-rule:nonzero;stroke:none"
       transform="matrix(1.3333333,0,0,-1.3333333,0,533.33333)" />
    <path
       id="path37"
       d="m 39.29,125.15 c 0,0 -0.9,0 -1.36,-0.9 0,0 -0.45,-0.88 -0.45,-2.66 0,0 0,-1.78 0.45,-2.67 0,0 0.46,-0.89 1.36,-0.89 0,0 0.91,0 1.36,0.89 0,0 0.46,0.89 0.46,2.67 0,0 0,1.78 -0.46,2.66 0,0 -0.45,0.9 -1.36,0.9 m 0,0.92 c 0,0 1.46,0 2.22,-1.15 0,0 0.77,-1.15 0.77,-3.33 0,0 0,-2.18 -0.77,-3.34 0,0 -0.76,-1.14 -2.22,-1.14 0,0 -1.45,0 -2.22,1.14 0,0 -0.76,1.16 -0.76,3.34 0,0 0,2.18 0.76,3.33 0,0 0.77,1.15 2.22,1.15 z"
       style="fill:#000000;fill-opacity:1;fill-rule:nonzero;stroke:none"
       transform="matrix(1.3333333,0,0,-1.3333333,0,533.33333)" />
    <path
       id="path38"
       d="m 46.83,125.15 c 0,0 -0.9,0 -1.36,-0.9 0,0 -0.45,-0.88 -0.45,-2.66 0,0 0,-1.78 0.45,-2.67 0,0 0.46,-0.89 1.36,-0.89 0,0 0.91,0 1.36,0.89 0,0 0.46,0.89 0.46,2.67 0,0 0,1.78 -0.46,2.66 0,0 -0.45,0.9 -1.36,0.9 m 0,0.92 c 0,0 1.46,0 2.22,-1.15 0,0 0.77,-1.15 0.77,-3.33 0,0 0,-2.18 -0.77,-3.34 0,0 -0.76,-1.14 -2.22,-1.14 0,0 -1.45,0 -2.22,1.14 0,0 -0.76,1.16 -0.76,3.34 0,0 0,2.18 0.76,3.33 0,0 0.77,1.15 2.22,1.15 z"
       style="fill:#000000;fill-opacity:1;fill-rule:nonzero;stroke:none"
       transform="matrix(1.3333333,0,0,-1.3333333,0,533.33333)" />
    <path
       id="path39"
       d="m 30.26,185.92 h 4.08 v -0.99 h -5.49 v 0.99 c 0,0 0.67,0.68 1.82,1.84 0,0 1.15,1.16 1.44,1.5 0,0 0.56,0.63 0.78,1.07 0,0 0.23,0.44 0.23,0.86 0,0 0,0.69 -0.49,1.12 0,0 -0.48,0.43 -1.25,0.43 0,0 -0.55,0 -1.17,-0.19 0,0 -0.6,-0.19 -1.3,-0.58 v 1.19 c 0,0 0.71,0.28 1.32,0.42 0,0 0.62,0.15 1.12,0.15 0,0 1.35,0 2.15,-0.67 0,0 0.79,-0.67 0.79,-1.8 0,0 0,-0.53 -0.2,-1.01 0,0 -0.2,-0.47 -0.72,-1.12 0,0 -0.15,-0.17 -0.92,-0.97 0,0 -0.78,-0.8 -2.19,-2.24 z"
       style="fill:#000000;fill-opacity:1;fill-rule:nonzero;stroke:none"
       transform="matrix(1.3333333,0,0,-1.3333333,0,533.33333)" />
    <path
       id="path40"
       d="m 39.29,192.8 c 0,0 -0.9,0 -1.36,-0.89 0,0 -0.45,-0.88 -0.45,-2.67 0,0 0,-1.77 0.45,-2.66 0,0 0.46,-0.89 1.36,-0.89 0,0 0.91,0 1.36,0.89 0,0 0.46,0.89 0.46,2.66 0,0 0,1.79 -0.46,2.67 0,0 -0.45,0.89 -1.36,0.89 m 0,0.93 c 0,0 1.46,0 2.22,-1.15 0,0 0.77,-1.15 0.77,-3.34 0,0 0,-2.18 -0.77,-3.33 0,0 -0.76,-1.15 -2.22,-1.15 0,0 -1.45,0 -2.22,1.15 0,0 -0.76,1.15 -0.76,3.33 0,0 0,2.19 0.76,3.34 0,0 0.77,1.15 2.22,1.15 z"
       style="fill:#000000;fill-opacity:1;fill-rule:nonzero;stroke:none"
       transform="matrix(1.3333333,0,0,-1.3333333,0,533.33333)" />
    <path
       id="path41"
       d="m 46.83,192.8 c 0,0 -0.9,0 -1.36,-0.89 0,0 -0.45,-0.88 -0.45,-2.67 0,0 0,-1.77 0.45,-2.66 0,0 0.46,-0.89 1.36,-0.89 0,0 0.91,0 1.36,0.89 0,0 0.46,0.89 0.46,2.66 0,0 0,1.79 -0.46,2.67 0,0 -0.45,0.89 -1.36,0.89 m 0,0.93 c 0,0 1.46,0 2.22,-1.15 0,0 0.77,-1.15 0.77,-3.34 0,0 0,-2.18 -0.77,-3.33 0,0 -0.76,-1.15 -2.22,-1.15 0,0 -1.45,0 -2.22,1.15 0,0 -0.76,1.15 -0.76,3.33 0,0 0,2.19 0.76,3.34 0,0 0.77,1.15 2.22,1.15 z"
       style="fill:#000000;fill-opacity:1;fill-rule:nonzero;stroke:none"
       transform="matrix(1.3333333,0,0,-1.3333333,0,533.33333)" />
    <path
       id="path42"
       d="m 32.8,257.25 c 0,0 0.83,-0.18 1.3,-0.75 0,0 0.48,-0.57 0.48,-1.4 0,0 0,-1.28 -0.88,-1.98 0,0 -0.88,-0.7 -2.5,-0.7 0,0 -0.55,0 -1.12,0.11 0,0 -0.58,0.1 -1.19,0.32 v 1.13 c 0,0 0.49,-0.29 1.06,-0.43 0,0 0.58,-0.15 1.21,-0.15 0,0 1.1,0 1.68,0.44 0,0 0.57,0.43 0.57,1.26 0,0 0,0.76 -0.53,1.19 0,0 -0.54,0.44 -1.49,0.44 h -1.01 v 0.96 h 1.06 c 0,0 0.86,0 1.31,0.34 0,0 0.46,0.35 0.46,0.99 0,0 0,0.67 -0.47,1.02 0,0 -0.47,0.36 -1.35,0.36 0,0 -0.48,0 -1.03,-0.1 0,0 -0.55,-0.11 -1.21,-0.33 v 1.04 c 0,0 0.67,0.19 1.24,0.28 0,0 0.59,0.09 1.1,0.09 0,0 1.33,0 2.11,-0.6 0,0 0.78,-0.61 0.78,-1.64 0,0 0,-0.71 -0.42,-1.21 0,0 -0.41,-0.49 -1.16,-0.68 z"
       style="fill:#000000;fill-opacity:1;fill-rule:nonzero;stroke:none"
       transform="matrix(1.3333333,0,0,-1.3333333,0,533.33333)" />
    <path
       id="path43"
       d="m 39.29,260.46 c 0,0 -0.9,0 -1.36,-0.89 0,0 -0.45,-0.89 -0.45,-2.67 0,0 0,-1.78 0.45,-2.67 0,0 0.46,-0.88 1.36,-0.88 0,0 0.91,0 1.36,0.88 0,0 0.46,0.89 0.46,2.67 0,0 0,1.78 -0.46,2.67 0,0 -0.45,0.89 -1.36,0.89 m 0,0.92 c 0,0 1.46,0 2.22,-1.15 0,0 0.77,-1.14 0.77,-3.33 0,0 0,-2.18 -0.77,-3.33 0,0 -0.76,-1.15 -2.22,-1.15 0,0 -1.45,0 -2.22,1.15 0,0 -0.76,1.15 -0.76,3.33 0,0 0,2.19 0.76,3.33 0,0 0.77,1.15 2.22,1.15 z"
       style="fill:#000000;fill-opacity:1;fill-rule:nonzero;stroke:none"
       transform="matrix(1.3333333,0,0,-1.3333333,0,533.33333)" />
    <path
       id="path44"
       d="m 46.83,260.46 c 0,0 -0.9,0 -1.36,-0.89 0,0 -0.45,-0.89 -0.45,-2.67 0,0 0,-1.78 0.45,-2.67 0,0 0.46,-0.88 1.36,-0.88 0,0 0.91,0 1.36,0.88 0,0 0.46,0.89 0.46,2.67 0,0 0,1.78 -0.46,2.67 0,0 -0.45,0.89 -1.36,0.89 m 0,0.92 c 0,0 1.46,0 2.22,-1.15 0,0 0.77,-1.14 0.77,-3.33 0,0 0,-2.18 -0.77,-3.33 0,0 -0.76,-1.15 -2.22,-1.15 0,0 -1.45,0 -2.22,1.15 0,0 -0.76,1.15 -0.76,3.33 0,0 0,2.19 0.76,3.33 0,0 0.77,1.15 2.22,1.15 z"
       style="fill:#000000;fill-opacity:1;fill-rule:nonzero;stroke:none"
       transform="matrix(1.3333333,0,0,-1.3333333,0,533.33333)" />
    <path
       id="path45"
       d="m 32.47,327.87 -2.96,-4.62 h 2.96 v 4.62 m -0.31,1.01 h 1.47 v -5.63 h 1.23 v -0.97 h -1.23 v -2.04 h -1.16 v 2.04 h -3.9 v 1.13 z"
       style="fill:#000000;fill-opacity:1;fill-rule:nonzero;stroke:none"
       transform="matrix(1.3333333,0,0,-1.3333333,0,533.33333)" />
    <path
       id="path46"
       d="m 39.29,328.11 c 0,0 -0.9,0 -1.36,-0.89 0,0 -0.45,-0.88 -0.45,-2.66 0,0 0,-1.78 0.45,-2.67 0,0 0.46,-0.89 1.36,-0.89 0,0 0.91,0 1.36,0.89 0,0 0.46,0.89 0.46,2.67 0,0 0,1.78 -0.46,2.66 0,0 -0.45,0.89 -1.36,0.89 m 0,0.93 c 0,0 1.46,0 2.22,-1.15 0,0 0.77,-1.15 0.77,-3.33 0,0 0,-2.19 -0.77,-3.34 0,0 -0.76,-1.14 -2.22,-1.14 0,0 -1.45,0 -2.22,1.14 0,0 -0.76,1.15 -0.76,3.34 0,0 0,2.18 0.76,3.33 0,0 0.77,1.15 2.22,1.15 z"
       style="fill:#000000;fill-opacity:1;fill-rule:nonzero;stroke:none"
       transform="matrix(1.3333333,0,0,-1.3333333,0,533.33333)" />
    <path
       id="path47"
       d="m 46.83,328.11 c 0,0 -0.9,0 -1.36,-0.89 0,0 -0.45,-0.88 -0.45,-2.66 0,0 0,-1.78 0.45,-2.67 0,0 0.46,-0.89 1.36,-0.89 0,0 0.91,0 1.36,0.89 0,0 0.46,0.89 0.46,2.67 0,0 0,1.78 -0.46,2.66 0,0 -0.45,0.89 -1.36,0.89 m 0,0.93 c 0,0 1.46,0 2.22,-1.15 0,0 0.77,-1.15 0.77,-3.33 0,0 0,-2.19 -0.77,-3.34 0,0 -0.76,-1.14 -2.22,-1.14 0,0 -1.45,0 -2.22,1.14 0,0 -0.76,1.15 -0.76,3.34 0,0 0,2.18 0.76,3.33 0,0 0.77,1.15 2.22,1.15 z"
       style="fill:#000000;fill-opacity:1;fill-rule:nonzero;stroke:none"
       transform="matrix(1.3333333,0,0,-1.3333333,0,533.33333)" />
    <path
       id="path48"
       d="m 8.25,215.81 c 0,0 0,-1.21 0.88,-1.86 0,0 0.91,-0.69 2.42,-0.69 0,0 1.6,0 2.53,0.68 0,0 0.91,0.69 0.91,1.87 0,0 0,1.17 -0.92,1.86 0,0 -0.93,0.68 -2.52,0.68 0,0 -1.45,0 -2.42,-0.68 0,0 -0.88,-0.63 -0.88,-1.86 m -1.16,0 v 4.86 h 1.46 v -1.64 c 0,0 1.24,0.87 3,0.87 0,0 2.19,0 3.43,-1.09 0,0 1.25,-1.09 1.25,-3 0,0 0,-1.92 -1.25,-3 0,0 -1.24,-1.09 -3.43,-1.09 0,0 -2.2,0 -3.43,1.09 0,0 -1.03,0.9 -1.03,3 z"
       style="fill:#000000;fill-opacity:1;fill-rule:nonzero;stroke:none"
       transform="matrix(1.3333333,0,0,-1.3333333,0,533.33333)" />
    <path
       id="path49"
       d="m 81.47,57.68 c -1.98,0 -3.6,-1.61 -3.6,-3.6 0,-1.99 1.62,-3.6 3.6,-3.6 1.99,0 3.6,1.61 3.6,3.6 0,1.99 -1.61,3.6 -3.6,3.6 z"
       style="fill:#009afa;fill-opacity:1;fill-rule:evenodd;stroke:#000000;stroke-width:0.64;stroke-linecap:round;stroke-linejoin:round;stroke-miterlimit:10;stroke-dasharray:none;stroke-opacity:1"
       transform="matrix(1.3333333,0,0,-1.3333333,0,533.33333)" />
    <path
       id="path50"
       d="m 73.8,57.54 c -1.99,0 -3.6,-1.61 -3.6,-3.6 0,-1.99 1.61,-3.6 3.6,-3.6 1.99,0 3.6,1.61 3.6,3.6 0,1.99 -1.61,3.6 -3.6,3.6 z"
       style="fill:#e36f47;fill-opacity:1;fill-rule:evenodd;stroke:#000000;stroke-width:0.64;stroke-linecap:round;stroke-linejoin:round;stroke-miterlimit:10;stroke-dasharray:none;stroke-opacity:1"
       transform="matrix(1.3333333,0,0,-1.3333333,0,533.33333)" />
    <path
       id="path51"
       d="m 573.21,382.05 c -1.99,0 -3.6,-1.61 -3.6,-3.6 0,-1.98 1.61,-3.6 3.6,-3.6 1.99,0 3.6,1.62 3.6,3.6 0,1.99 -1.61,3.6 -3.6,3.6 z"
       style="fill:#3ea44e;fill-opacity:1;fill-rule:evenodd;stroke:#000000;stroke-width:0.64;stroke-linecap:round;stroke-linejoin:round;stroke-miterlimit:10;stroke-dasharray:none;stroke-opacity:1"
       transform="matrix(1.3333333,0,0,-1.3333333,0,533.33333)" />
    <path
       id="path52"
       d="m 418.42,73.65 c -1.98,0 -3.6,-1.61 -3.6,-3.6 0,-1.99 1.62,-3.6 3.6,-3.6 1.99,0 3.6,1.61 3.6,3.6 0,1.99 -1.61,3.6 -3.6,3.6 z"
       style="fill:#c371d2;fill-opacity:1;fill-rule:evenodd;stroke:#000000;stroke-width:0.64;stroke-linecap:round;stroke-linejoin:round;stroke-miterlimit:10;stroke-dasharray:none;stroke-opacity:1"
       transform="matrix(1.3333333,0,0,-1.3333333,0,533.33333)" />
    <path
       id="path53"
       d="m 76.47,311.92 h 281.19 v 64.8 H 76.47"
       style="fill:#ffffff;fill-opacity:1;fill-rule:evenodd;stroke:none"
       transform="matrix(1.3333333,0,0,-1.3333333,0,533.33333)"
       clip-path="url(#clipPath54)" />
    <path
       id="path55"
       d="m 76.47,311.92 h 281.19 v 64.8 H 76.47 v -64.8"
       style="fill:none;stroke:#000000;stroke-width:1;stroke-linecap:round;stroke-linejoin:round;stroke-miterlimit:10;stroke-dasharray:none;stroke-opacity:1"
       transform="matrix(1.3333333,0,0,-1.3333333,0,533.33333)" />
    <path
       id="path56"
       d="m 99.99,368.88 c -2.82,0 -5.12,-2.29 -5.12,-5.12 0,-2.82 2.3,-5.12 5.12,-5.12 2.83,0 5.12,2.3 5.12,5.12 0,2.83 -2.29,5.12 -5.12,5.12 z"
       style="fill:#009afa;fill-opacity:1;fill-rule:evenodd;stroke:#000000;stroke-width:0.9102;stroke-linecap:round;stroke-linejoin:round;stroke-miterlimit:10;stroke-dasharray:none;stroke-opacity:1"
       transform="matrix(1.3333333,0,0,-1.3333333,0,533.33333)" />
    <path
       id="path57"
       d="m 128.21,362.68 c 0,0 0,1.17 -0.48,1.84 0,0 -0.48,0.67 -1.33,0.67 0,0 -0.84,0 -1.33,-0.67 0,0 -0.48,-0.67 -0.48,-1.84 0,0 0,-1.18 0.48,-1.85 0,0 0.49,-0.66 1.33,-0.66 0,0 0.85,0 1.33,0.66 0,0 0.48,0.67 0.48,1.85 m -3.62,2.26 c 0,0 0.34,0.58 0.85,0.86 0,0 0.51,0.28 1.22,0.28 0,0 1.18,0 1.92,-0.94 0,0 0.74,-0.93 0.74,-2.46 0,0 0,-1.53 -0.74,-2.47 0,0 -0.74,-0.93 -1.92,-0.93 0,0 -0.71,0 -1.22,0.27 0,0 -0.51,0.29 -0.85,0.87 v -0.98 h -1.07 v 9.01 h 1.07 z"
       style="fill:#000000;fill-opacity:1;fill-rule:nonzero;stroke:none"
       transform="matrix(1.3333333,0,0,-1.3333333,0,533.33333)" />
    <path
       id="path58"
       d="m 136.63,362.95 v -0.52 h -4.9 c 0,0 0.07,-1.1 0.66,-1.68 0,0 0.6,-0.57 1.66,-0.57 0,0 0.61,0 1.18,0.15 0,0 0.58,0.15 1.15,0.45 v -1.01 c 0,0 -0.57,-0.24 -1.17,-0.37 0,0 -0.61,-0.12 -1.23,-0.12 0,0 -1.55,0 -2.46,0.9 0,0 -0.9,0.9 -0.9,2.44 0,0 0,1.59 0.86,2.52 0,0 0.86,0.94 2.32,0.94 0,0 1.31,0 2.06,-0.84 0,0 0.77,-0.84 0.77,-2.29 m -1.07,0.31 c 0,0 -0.01,0.88 -0.49,1.4 0,0 -0.47,0.52 -1.26,0.52 0,0 -0.89,0 -1.43,-0.51 0,0 -0.53,-0.5 -0.61,-1.41 z"
       style="fill:#000000;fill-opacity:1;fill-rule:nonzero;stroke:none"
       transform="matrix(1.3333333,0,0,-1.3333333,0,533.33333)" />
    <path
       id="path59"
       d="m 139.43,367.76 v -1.84 h 2.19 v -0.82 h -2.19 v -3.52 c 0,0 0,-0.79 0.21,-1.02 0,0 0.22,-0.23 0.89,-0.23 h 1.09 v -0.89 h -1.09 c 0,0 -1.23,0 -1.7,0.46 0,0 -0.47,0.46 -0.47,1.68 v 3.52 h -0.78 v 0.82 h 0.78 v 1.84 z"
       style="fill:#000000;fill-opacity:1;fill-rule:nonzero;stroke:none"
       transform="matrix(1.3333333,0,0,-1.3333333,0,533.33333)" />
    <path
       id="path60"
       d="m 145.97,362.7 c 0,0 -1.29,0 -1.79,-0.29 0,0 -0.5,-0.3 -0.5,-1.01 0,0 0,-0.57 0.37,-0.9 0,0 0.38,-0.33 1.02,-0.33 0,0 0.89,0 1.42,0.62 0,0 0.54,0.63 0.54,1.67 v 0.24 h -1.06 m 2.12,0.44 v -3.7 h -1.06 v 0.99 c 0,0 -0.37,-0.59 -0.91,-0.88 0,0 -0.54,-0.27 -1.33,-0.27 0,0 -1,0 -1.59,0.55 0,0 -0.58,0.56 -0.58,1.5 0,0 0,1.09 0.73,1.65 0,0 0.73,0.55 2.19,0.55 h 1.49 v 0.11 c 0,0 0,0.73 -0.49,1.13 0,0 -0.48,0.41 -1.35,0.41 0,0 -0.56,0 -1.08,-0.14 0,0 -0.53,-0.13 -1.02,-0.39 v 0.98 c 0,0 0.59,0.22 1.14,0.33 0,0 0.55,0.12 1.07,0.12 0,0 1.4,0 2.1,-0.73 0,0 0.69,-0.73 0.69,-2.21 z"
       style="fill:#000000;fill-opacity:1;fill-rule:nonzero;stroke:none"
       transform="matrix(1.3333333,0,0,-1.3333333,0,533.33333)" />
    <path
       id="path61"
       d="m 150.56,360.91 h 1.22 v -0.99 l -0.95,-1.85 h -0.75 l 0.48,1.85 z"
       style="fill:#000000;fill-opacity:1;fill-rule:nonzero;stroke:none"
       transform="matrix(1.3333333,0,0,-1.3333333,0,533.33333)" />
    <path
       id="path62"
       d="m 157.87,368.08 h 1.74 l 2.2,-5.88 2.22,5.88 h 1.74 v -8.64 h -1.14 v 7.59 l -2.23,-5.93 h -1.17 l -2.23,5.93 v -7.59 h -1.13 z"
       style="fill:#000000;fill-opacity:1;fill-rule:nonzero;stroke:none"
       transform="matrix(1.3333333,0,0,-1.3333333,0,533.33333)" />
    <path
       id="path63"
       d="m 173.59,362.95 v -0.52 h -4.9 c 0,0 0.07,-1.1 0.66,-1.68 0,0 0.6,-0.57 1.66,-0.57 0,0 0.61,0 1.19,0.15 0,0 0.57,0.15 1.14,0.45 v -1.01 c 0,0 -0.57,-0.24 -1.17,-0.37 0,0 -0.6,-0.12 -1.22,-0.12 0,0 -1.56,0 -2.46,0.9 0,0 -0.91,0.9 -0.91,2.44 0,0 0,1.59 0.86,2.52 0,0 0.86,0.94 2.32,0.94 0,0 1.31,0 2.07,-0.84 0,0 0.76,-0.84 0.76,-2.29 m -1.06,0.31 c 0,0 -0.02,0.88 -0.5,1.4 0,0 -0.47,0.52 -1.26,0.52 0,0 -0.89,0 -1.43,-0.51 0,0 -0.53,-0.5 -0.61,-1.41 z"
       style="fill:#000000;fill-opacity:1;fill-rule:nonzero;stroke:none"
       transform="matrix(1.3333333,0,0,-1.3333333,0,533.33333)" />
    <path
       id="path64"
       d="m 178.28,362.7 c 0,0 -1.29,0 -1.78,-0.29 0,0 -0.5,-0.3 -0.5,-1.01 0,0 0,-0.57 0.37,-0.9 0,0 0.37,-0.33 1.02,-0.33 0,0 0.88,0 1.41,0.62 0,0 0.54,0.63 0.54,1.67 v 0.24 h -1.06 m 2.13,0.44 v -3.7 h -1.07 v 0.99 c 0,0 -0.36,-0.59 -0.91,-0.88 0,0 -0.54,-0.27 -1.33,-0.27 0,0 -0.99,0 -1.58,0.55 0,0 -0.59,0.56 -0.59,1.5 0,0 0,1.09 0.73,1.65 0,0 0.74,0.55 2.19,0.55 h 1.49 v 0.11 c 0,0 0,0.73 -0.48,1.13 0,0 -0.48,0.41 -1.36,0.41 0,0 -0.55,0 -1.08,-0.14 0,0 -0.53,-0.13 -1.01,-0.39 v 0.98 c 0,0 0.58,0.22 1.13,0.33 0,0 0.55,0.12 1.07,0.12 0,0 1.41,0 2.1,-0.73 0,0 0.7,-0.73 0.7,-2.21 z"
       style="fill:#000000;fill-opacity:1;fill-rule:nonzero;stroke:none"
       transform="matrix(1.3333333,0,0,-1.3333333,0,533.33333)" />
    <path
       id="path65"
       d="m 187.99,363.35 v -3.91 h -1.07 v 3.88 c 0,0 0,0.92 -0.36,1.38 0,0 -0.35,0.45 -1.07,0.45 0,0 -0.86,0 -1.36,-0.55 0,0 -0.5,-0.54 -0.5,-1.49 v -3.67 h -1.07 v 6.48 h 1.07 v -1 c 0,0 0.38,0.58 0.9,0.87 0,0 0.52,0.29 1.2,0.29 0,0 1.11,0 1.69,-0.69 0,0 0.57,-0.69 0.57,-2.04 z"
       style="fill:#000000;fill-opacity:1;fill-rule:nonzero;stroke:none"
       transform="matrix(1.3333333,0,0,-1.3333333,0,533.33333)" />
    <path
       id="path66"
       d="m 198.01,365.73 v -1 c 0,0 -0.45,0.23 -0.94,0.34 0,0 -0.48,0.12 -1,0.12 0,0 -0.8,0 -1.19,-0.24 0,0 -0.4,-0.25 -0.4,-0.73 0,0 0,-0.37 0.29,-0.59 0,0 0.28,-0.21 1.14,-0.4 l 0.36,-0.08 c 0,0 1.13,-0.24 1.61,-0.69 0,0 0.48,-0.44 0.48,-1.23 0,0 0,-0.9 -0.72,-1.43 0,0 -0.71,-0.52 -1.96,-0.52 0,0 -0.52,0 -1.09,0.1 0,0 -0.56,0.1 -1.18,0.3 v 1.1 c 0,0 0.59,-0.31 1.16,-0.46 0,0 0.57,-0.15 1.13,-0.15 0,0 0.75,0 1.16,0.25 0,0 0.41,0.26 0.41,0.73 0,0 0,0.43 -0.3,0.67 0,0 -0.29,0.23 -1.28,0.44 l -0.37,0.09 c 0,0 -0.99,0.21 -1.43,0.63 0,0 -0.44,0.44 -0.44,1.19 0,0 0,0.92 0.65,1.41 0,0 0.65,0.5 1.84,0.5 0,0 0.59,0 1.11,-0.09 0,0 0.52,-0.08 0.96,-0.26 z"
       style="fill:#000000;fill-opacity:1;fill-rule:nonzero;stroke:none"
       transform="matrix(1.3333333,0,0,-1.3333333,0,533.33333)" />
    <path
       id="path67"
       d="m 199.94,362 v 3.92 h 1.07 v -3.88 c 0,0 0,-0.92 0.36,-1.38 0,0 0.36,-0.46 1.07,-0.46 0,0 0.87,0 1.36,0.55 0,0 0.51,0.55 0.51,1.5 v 3.67 h 1.06 v -6.48 h -1.06 v 1 c 0,0 -0.39,-0.59 -0.9,-0.88 0,0 -0.51,-0.28 -1.19,-0.28 0,0 -1.12,0 -1.7,0.69 0,0 -0.58,0.69 -0.58,2.03 m 2.68,4.08 z"
       style="fill:#000000;fill-opacity:1;fill-rule:nonzero;stroke:none"
       transform="matrix(1.3333333,0,0,-1.3333333,0,533.33333)" />
    <path
       id="path68"
       d="m 211.7,365.73 v -1 c 0,0 -0.45,0.23 -0.94,0.34 0,0 -0.49,0.12 -1.01,0.12 0,0 -0.79,0 -1.19,-0.24 0,0 -0.39,-0.25 -0.39,-0.73 0,0 0,-0.37 0.28,-0.59 0,0 0.28,-0.21 1.14,-0.4 l 0.37,-0.08 c 0,0 1.13,-0.24 1.6,-0.69 0,0 0.49,-0.44 0.49,-1.23 0,0 0,-0.9 -0.72,-1.43 0,0 -0.71,-0.52 -1.96,-0.52 0,0 -0.53,0 -1.09,0.1 0,0 -0.56,0.1 -1.19,0.3 v 1.1 c 0,0 0.59,-0.31 1.16,-0.46 0,0 0.58,-0.15 1.14,-0.15 0,0 0.75,0 1.16,0.25 0,0 0.4,0.26 0.4,0.73 0,0 0,0.43 -0.29,0.67 0,0 -0.29,0.23 -1.28,0.44 l -0.37,0.09 c 0,0 -0.99,0.21 -1.43,0.63 0,0 -0.44,0.44 -0.44,1.19 0,0 0,0.92 0.65,1.41 0,0 0.64,0.5 1.84,0.5 0,0 0.59,0 1.11,-0.09 0,0 0.52,-0.08 0.96,-0.26 z"
       style="fill:#000000;fill-opacity:1;fill-rule:nonzero;stroke:none"
       transform="matrix(1.3333333,0,0,-1.3333333,0,533.33333)" />
    <path
       id="path69"
       d="m 218.41,365.68 v -1 c 0,0 -0.46,0.25 -0.91,0.37 0,0 -0.45,0.13 -0.92,0.13 0,0 -1.03,0 -1.61,-0.66 0,0 -0.57,-0.66 -0.57,-1.84 0,0 0,-1.19 0.57,-1.85 0,0 0.58,-0.65 1.61,-0.65 0,0 0.47,0 0.92,0.12 0,0 0.45,0.13 0.91,0.38 v -0.99 c 0,0 -0.45,-0.21 -0.93,-0.31 0,0 -0.48,-0.1 -1.01,-0.1 0,0 -1.47,0 -2.33,0.92 0,0 -0.86,0.92 -0.86,2.48 0,0 0,1.58 0.87,2.49 0,0 0.87,0.91 2.39,0.91 0,0 0.49,0 0.96,-0.1 0,0 0.47,-0.1 0.91,-0.3 z"
       style="fill:#000000;fill-opacity:1;fill-rule:nonzero;stroke:none"
       transform="matrix(1.3333333,0,0,-1.3333333,0,533.33333)" />
    <path
       id="path70"
       d="m 225.8,362.95 v -0.52 h -4.89 c 0,0 0.06,-1.1 0.65,-1.68 0,0 0.6,-0.57 1.66,-0.57 0,0 0.61,0 1.19,0.15 0,0 0.57,0.15 1.14,0.45 v -1.01 c 0,0 -0.57,-0.24 -1.17,-0.37 0,0 -0.6,-0.12 -1.22,-0.12 0,0 -1.55,0 -2.46,0.9 0,0 -0.91,0.9 -0.91,2.44 0,0 0,1.59 0.86,2.52 0,0 0.86,0.94 2.32,0.94 0,0 1.31,0 2.07,-0.84 0,0 0.76,-0.84 0.76,-2.29 m -1.06,0.31 c 0,0 -0.02,0.88 -0.5,1.4 0,0 -0.47,0.52 -1.26,0.52 0,0 -0.89,0 -1.43,-0.51 0,0 -0.53,-0.5 -0.61,-1.41 z"
       style="fill:#000000;fill-opacity:1;fill-rule:nonzero;stroke:none"
       transform="matrix(1.3333333,0,0,-1.3333333,0,533.33333)" />
    <path
       id="path71"
       d="m 228.58,360.42 v -3.44 h -1.07 v 8.94 h 1.07 v -0.98 c 0,0 0.33,0.58 0.84,0.86 0,0 0.52,0.28 1.23,0.28 0,0 1.18,0 1.92,-0.94 0,0 0.74,-0.93 0.74,-2.46 0,0 0,-1.53 -0.74,-2.47 0,0 -0.74,-0.93 -1.92,-0.93 0,0 -0.71,0 -1.23,0.27 0,0 -0.51,0.29 -0.84,0.87 m 3.62,2.26 c 0,0 0,1.17 -0.48,1.84 0,0 -0.49,0.67 -1.33,0.67 0,0 -0.84,0 -1.33,-0.67 0,0 -0.48,-0.67 -0.48,-1.84 0,0 0,-1.18 0.48,-1.85 0,0 0.49,-0.66 1.33,-0.66 0,0 0.84,0 1.33,0.66 0,0 0.48,0.67 0.48,1.85 z"
       style="fill:#000000;fill-opacity:1;fill-rule:nonzero;stroke:none"
       transform="matrix(1.3333333,0,0,-1.3333333,0,533.33333)" />
    <path
       id="path72"
       d="m 236.12,367.76 v -1.84 h 2.2 v -0.82 h -2.2 v -3.52 c 0,0 0,-0.79 0.22,-1.02 0,0 0.22,-0.23 0.88,-0.23 h 1.1 v -0.89 h -1.1 c 0,0 -1.23,0 -1.7,0.46 0,0 -0.47,0.46 -0.47,1.68 v 3.52 h -0.78 v 0.82 h 0.78 v 1.84 z"
       style="fill:#000000;fill-opacity:1;fill-rule:nonzero;stroke:none"
       transform="matrix(1.3333333,0,0,-1.3333333,0,533.33333)" />
    <path
       id="path73"
       d="m 239.72,365.92 h 1.06 v -6.48 h -1.06 v 6.48 m 0,2.53 h 1.06 v -1.35 h -1.06 z"
       style="fill:#000000;fill-opacity:1;fill-rule:nonzero;stroke:none"
       transform="matrix(1.3333333,0,0,-1.3333333,0,533.33333)" />
    <path
       id="path74"
       d="m 247.66,362.68 c 0,0 0,1.17 -0.48,1.84 0,0 -0.48,0.67 -1.33,0.67 0,0 -0.84,0 -1.33,-0.67 0,0 -0.48,-0.67 -0.48,-1.84 0,0 0,-1.18 0.48,-1.85 0,0 0.49,-0.66 1.33,-0.66 0,0 0.85,0 1.33,0.66 0,0 0.48,0.67 0.48,1.85 m -3.62,2.26 c 0,0 0.34,0.58 0.85,0.86 0,0 0.51,0.28 1.22,0.28 0,0 1.18,0 1.92,-0.94 0,0 0.74,-0.93 0.74,-2.46 0,0 0,-1.53 -0.74,-2.47 0,0 -0.74,-0.93 -1.92,-0.93 0,0 -0.71,0 -1.22,0.27 0,0 -0.51,0.29 -0.85,0.87 v -0.98 h -1.07 v 9.01 h 1.07 z"
       style="fill:#000000;fill-opacity:1;fill-rule:nonzero;stroke:none"
       transform="matrix(1.3333333,0,0,-1.3333333,0,533.33333)" />
    <path
       id="path75"
       d="m 250.53,368.45 h 1.07 v -9.01 h -1.07 z"
       style="fill:#000000;fill-opacity:1;fill-rule:nonzero;stroke:none"
       transform="matrix(1.3333333,0,0,-1.3333333,0,533.33333)" />
    <path
       id="path76"
       d="m 259.37,362.95 v -0.52 h -4.89 c 0,0 0.06,-1.1 0.66,-1.68 0,0 0.59,-0.57 1.65,-0.57 0,0 0.61,0 1.19,0.15 0,0 0.58,0.15 1.14,0.45 v -1.01 c 0,0 -0.57,-0.24 -1.17,-0.37 0,0 -0.6,-0.12 -1.22,-0.12 0,0 -1.55,0 -2.46,0.9 0,0 -0.91,0.9 -0.91,2.44 0,0 0,1.59 0.86,2.52 0,0 0.86,0.94 2.32,0.94 0,0 1.31,0 2.07,-0.84 0,0 0.76,-0.84 0.76,-2.29 m -1.06,0.31 c 0,0 -0.02,0.88 -0.5,1.4 0,0 -0.47,0.52 -1.26,0.52 0,0 -0.89,0 -1.43,-0.51 0,0 -0.53,-0.5 -0.61,-1.41 z"
       style="fill:#000000;fill-opacity:1;fill-rule:nonzero;stroke:none"
       transform="matrix(1.3333333,0,0,-1.3333333,0,533.33333)" />
    <path
       id="path77"
       d="m 265.92,360.42 v -3.44 h -1.07 v 8.94 h 1.07 v -0.98 c 0,0 0.33,0.58 0.84,0.86 0,0 0.52,0.28 1.23,0.28 0,0 1.18,0 1.91,-0.94 0,0 0.74,-0.93 0.74,-2.46 0,0 0,-1.53 -0.74,-2.47 0,0 -0.73,-0.93 -1.91,-0.93 0,0 -0.71,0 -1.23,0.27 0,0 -0.51,0.29 -0.84,0.87 m 3.62,2.26 c 0,0 0,1.17 -0.49,1.84 0,0 -0.48,0.67 -1.32,0.67 0,0 -0.85,0 -1.33,-0.67 0,0 -0.48,-0.67 -0.48,-1.84 0,0 0,-1.18 0.48,-1.85 0,0 0.48,-0.66 1.33,-0.66 0,0 0.84,0 1.32,0.66 0,0 0.49,0.67 0.49,1.85 z"
       style="fill:#000000;fill-opacity:1;fill-rule:nonzero;stroke:none"
       transform="matrix(1.3333333,0,0,-1.3333333,0,533.33333)" />
    <path
       id="path78"
       d="m 274.92,365.18 c 0,0 -0.86,0 -1.35,-0.67 0,0 -0.5,-0.67 -0.5,-1.83 0,0 0,-1.17 0.49,-1.84 0,0 0.5,-0.66 1.36,-0.66 0,0 0.85,0 1.35,0.67 0,0 0.5,0.67 0.5,1.83 0,0 0,1.15 -0.5,1.82 0,0 -0.5,0.68 -1.35,0.68 m 0,0.9 c 0,0 1.39,0 2.18,-0.9 0,0 0.8,-0.91 0.8,-2.5 0,0 0,-1.59 -0.8,-2.5 0,0 -0.79,-0.9 -2.18,-0.9 0,0 -1.39,0 -2.19,0.9 0,0 -0.78,0.91 -0.78,2.5 0,0 0,1.59 0.78,2.5 0,0 0.8,0.9 2.19,0.9 z"
       style="fill:#000000;fill-opacity:1;fill-rule:nonzero;stroke:none"
       transform="matrix(1.3333333,0,0,-1.3333333,0,533.33333)" />
    <path
       id="path79"
       d="m 280.69,360.42 v -3.44 h -1.07 v 8.94 h 1.07 v -0.98 c 0,0 0.34,0.58 0.85,0.86 0,0 0.51,0.28 1.22,0.28 0,0 1.18,0 1.92,-0.94 0,0 0.74,-0.93 0.74,-2.46 0,0 0,-1.53 -0.74,-2.47 0,0 -0.74,-0.93 -1.92,-0.93 0,0 -0.71,0 -1.22,0.27 0,0 -0.51,0.29 -0.85,0.87 m 3.62,2.26 c 0,0 0,1.17 -0.48,1.84 0,0 -0.48,0.67 -1.33,0.67 0,0 -0.84,0 -1.33,-0.67 0,0 -0.48,-0.67 -0.48,-1.84 0,0 0,-1.18 0.48,-1.85 0,0 0.49,-0.66 1.33,-0.66 0,0 0.85,0 1.33,0.66 0,0 0.48,0.67 0.48,1.85 z"
       style="fill:#000000;fill-opacity:1;fill-rule:nonzero;stroke:none"
       transform="matrix(1.3333333,0,0,-1.3333333,0,533.33333)" />
    <path
       id="path80"
       d="m 287.07,362 v 3.92 h 1.07 v -3.88 c 0,0 0,-0.92 0.36,-1.38 0,0 0.36,-0.46 1.07,-0.46 0,0 0.87,0 1.36,0.55 0,0 0.51,0.55 0.51,1.5 v 3.67 h 1.06 v -6.48 h -1.06 v 1 c 0,0 -0.39,-0.59 -0.91,-0.88 0,0 -0.5,-0.28 -1.18,-0.28 0,0 -1.12,0 -1.7,0.69 0,0 -0.58,0.69 -0.58,2.03 m 2.68,4.08 z"
       style="fill:#000000;fill-opacity:1;fill-rule:nonzero;stroke:none"
       transform="matrix(1.3333333,0,0,-1.3333333,0,533.33333)" />
    <path
       id="path81"
       d="m 294.7,368.45 h 1.06 v -9.01 h -1.06 z"
       style="fill:#000000;fill-opacity:1;fill-rule:nonzero;stroke:none"
       transform="matrix(1.3333333,0,0,-1.3333333,0,533.33333)" />
    <path
       id="path82"
       d="m 300.93,362.7 c 0,0 -1.29,0 -1.78,-0.29 0,0 -0.5,-0.3 -0.5,-1.01 0,0 0,-0.57 0.37,-0.9 0,0 0.37,-0.33 1.02,-0.33 0,0 0.88,0 1.41,0.62 0,0 0.54,0.63 0.54,1.67 v 0.24 h -1.06 m 2.13,0.44 v -3.7 h -1.07 v 0.99 c 0,0 -0.36,-0.59 -0.91,-0.88 0,0 -0.54,-0.27 -1.33,-0.27 0,0 -0.99,0 -1.58,0.55 0,0 -0.59,0.56 -0.59,1.5 0,0 0,1.09 0.73,1.65 0,0 0.74,0.55 2.19,0.55 h 1.49 v 0.11 c 0,0 0,0.73 -0.48,1.13 0,0 -0.48,0.41 -1.36,0.41 0,0 -0.55,0 -1.08,-0.14 0,0 -0.53,-0.13 -1.01,-0.39 v 0.98 c 0,0 0.58,0.22 1.13,0.33 0,0 0.55,0.12 1.07,0.12 0,0 1.41,0 2.1,-0.73 0,0 0.7,-0.73 0.7,-2.21 z"
       style="fill:#000000;fill-opacity:1;fill-rule:nonzero;stroke:none"
       transform="matrix(1.3333333,0,0,-1.3333333,0,533.33333)" />
    <path
       id="path83"
       d="m 306.3,367.76 v -1.84 h 2.2 v -0.82 h -2.2 v -3.52 c 0,0 0,-0.79 0.22,-1.02 0,0 0.22,-0.23 0.88,-0.23 h 1.1 v -0.89 h -1.1 c 0,0 -1.23,0 -1.7,0.46 0,0 -0.47,0.46 -0.47,1.68 v 3.52 h -0.78 v 0.82 h 0.78 v 1.84 z"
       style="fill:#000000;fill-opacity:1;fill-rule:nonzero;stroke:none"
       transform="matrix(1.3333333,0,0,-1.3333333,0,533.33333)" />
    <path
       id="path84"
       d="m 309.9,365.92 h 1.06 v -6.48 h -1.06 v 6.48 m 0,2.53 h 1.06 v -1.35 h -1.06 z"
       style="fill:#000000;fill-opacity:1;fill-rule:nonzero;stroke:none"
       transform="matrix(1.3333333,0,0,-1.3333333,0,533.33333)" />
    <path
       id="path85"
       d="m 315.7,365.18 c 0,0 -0.85,0 -1.35,-0.67 0,0 -0.5,-0.67 -0.5,-1.83 0,0 0,-1.17 0.49,-1.84 0,0 0.5,-0.66 1.36,-0.66 0,0 0.85,0 1.35,0.67 0,0 0.5,0.67 0.5,1.83 0,0 0,1.15 -0.5,1.82 0,0 -0.5,0.68 -1.35,0.68 m 0,0.9 c 0,0 1.39,0 2.18,-0.9 0,0 0.8,-0.91 0.8,-2.5 0,0 0,-1.59 -0.8,-2.5 0,0 -0.79,-0.9 -2.18,-0.9 0,0 -1.39,0 -2.19,0.9 0,0 -0.78,0.91 -0.78,2.5 0,0 0,1.59 0.78,2.5 0,0 0.8,0.9 2.19,0.9 z"
       style="fill:#000000;fill-opacity:1;fill-rule:nonzero;stroke:none"
       transform="matrix(1.3333333,0,0,-1.3333333,0,533.33333)" />
    <path
       id="path86"
       d="m 325.83,363.35 v -3.91 h -1.07 v 3.88 c 0,0 0,0.92 -0.35,1.38 0,0 -0.36,0.45 -1.08,0.45 0,0 -0.86,0 -1.36,-0.55 0,0 -0.5,-0.54 -0.5,-1.49 v -3.67 h -1.07 v 6.48 h 1.07 v -1 c 0,0 0.38,0.58 0.9,0.87 0,0 0.52,0.29 1.2,0.29 0,0 1.11,0 1.69,-0.69 0,0 0.57,-0.69 0.57,-2.04 z"
       style="fill:#000000;fill-opacity:1;fill-rule:nonzero;stroke:none"
       transform="matrix(1.3333333,0,0,-1.3333333,0,533.33333)" />
    <path
       id="path87"
       d="m 99.99,355.92 c -2.82,0 -5.12,-2.29 -5.12,-5.12 0,-2.82 2.3,-5.12 5.12,-5.12 2.83,0 5.12,2.3 5.12,5.12 0,2.83 -2.29,5.12 -5.12,5.12 z"
       style="fill:#e36f47;fill-opacity:1;fill-rule:evenodd;stroke:#000000;stroke-width:0.9102;stroke-linecap:round;stroke-linejoin:round;stroke-miterlimit:10;stroke-dasharray:none;stroke-opacity:1"
       transform="matrix(1.3333333,0,0,-1.3333333,0,533.33333)" />
    <path
       id="path88"
       d="m 128.25,349.8 c 0,0 0,1.16 -0.48,1.79 0,0 -0.48,0.64 -1.34,0.64 0,0 -0.85,0 -1.33,-0.64 0,0 -0.48,-0.63 -0.48,-1.79 0,0 0,-1.15 0.48,-1.79 0,0 0.48,-0.64 1.33,-0.64 0,0 0.86,0 1.34,0.64 0,0 0.48,0.64 0.48,1.79 m 1.06,-2.51 c 0,0 0,-1.66 -0.73,-2.46 0,0 -0.74,-0.81 -2.25,-0.81 0,0 -0.56,0 -1.06,0.08 0,0 -0.5,0.09 -0.97,0.26 v 1.03 c 0,0 0.47,-0.25 0.93,-0.37 0,0 0.46,-0.12 0.93,-0.12 0,0 1.05,0 1.57,0.55 0,0 0.52,0.54 0.52,1.65 v 0.52 c 0,0 -0.33,-0.57 -0.85,-0.85 0,0 -0.51,-0.29 -1.23,-0.29 0,0 -1.19,0 -1.92,0.91 0,0 -0.73,0.91 -0.73,2.41 0,0 0,1.5 0.73,2.41 0,0 0.73,0.91 1.92,0.91 0,0 0.72,0 1.23,-0.28 0,0 0.52,-0.29 0.85,-0.86 v 0.98 h 1.06 z"
       style="fill:#000000;fill-opacity:1;fill-rule:nonzero;stroke:none"
       transform="matrix(1.3333333,0,0,-1.3333333,0,533.33333)" />
    <path
       id="path89"
       d="m 134.45,349.74 c 0,0 -1.29,0 -1.79,-0.29 0,0 -0.49,-0.3 -0.49,-1.01 0,0 0,-0.57 0.37,-0.9 0,0 0.37,-0.33 1.02,-0.33 0,0 0.88,0 1.41,0.62 0,0 0.54,0.63 0.54,1.67 v 0.24 h -1.06 m 2.13,0.44 v -3.7 h -1.07 v 0.99 c 0,0 -0.36,-0.59 -0.91,-0.88 0,0 -0.54,-0.27 -1.33,-0.27 0,0 -0.99,0 -1.58,0.55 0,0 -0.59,0.56 -0.59,1.5 0,0 0,1.09 0.73,1.65 0,0 0.74,0.55 2.19,0.55 h 1.49 v 0.11 c 0,0 0,0.73 -0.48,1.13 0,0 -0.48,0.41 -1.36,0.41 0,0 -0.55,0 -1.08,-0.14 0,0 -0.53,-0.13 -1.01,-0.39 v 0.98 c 0,0 0.58,0.22 1.13,0.33 0,0 0.55,0.12 1.07,0.12 0,0 1.41,0 2.1,-0.73 0,0 0.7,-0.73 0.7,-2.21 z"
       style="fill:#000000;fill-opacity:1;fill-rule:nonzero;stroke:none"
       transform="matrix(1.3333333,0,0,-1.3333333,0,533.33333)" />
    <path
       id="path90"
       d="m 143.82,351.72 c 0,0 0.4,0.72 0.95,1.06 0,0 0.56,0.34 1.31,0.34 0,0 1.01,0 1.56,-0.71 0,0 0.55,-0.71 0.55,-2.02 v -3.91 h -1.07 v 3.88 c 0,0 0,0.93 -0.33,1.38 0,0 -0.33,0.45 -1.01,0.45 0,0 -0.82,0 -1.3,-0.55 0,0 -0.48,-0.54 -0.48,-1.49 v -3.67 h -1.07 v 3.88 c 0,0 0,0.94 -0.33,1.38 0,0 -0.33,0.45 -1.02,0.45 0,0 -0.82,0 -1.3,-0.55 0,0 -0.48,-0.55 -0.48,-1.49 v -3.67 h -1.07 v 6.48 h 1.07 v -1 c 0,0 0.36,0.59 0.87,0.88 0,0 0.51,0.28 1.21,0.28 0,0 0.71,0 1.2,-0.36 0,0 0.5,-0.36 0.74,-1.04 z"
       style="fill:#000000;fill-opacity:1;fill-rule:nonzero;stroke:none"
       transform="matrix(1.3333333,0,0,-1.3333333,0,533.33333)" />
    <path
       id="path91"
       d="m 155.36,351.72 c 0,0 0.4,0.72 0.96,1.06 0,0 0.55,0.34 1.3,0.34 0,0 1.02,0 1.57,-0.71 0,0 0.55,-0.71 0.55,-2.02 v -3.91 h -1.07 v 3.88 c 0,0 0,0.93 -0.33,1.38 0,0 -0.33,0.45 -1.01,0.45 0,0 -0.83,0 -1.31,-0.55 0,0 -0.48,-0.54 -0.48,-1.49 v -3.67 h -1.07 v 3.88 c 0,0 0,0.94 -0.33,1.38 0,0 -0.33,0.45 -1.02,0.45 0,0 -0.81,0 -1.29,-0.55 0,0 -0.48,-0.55 -0.48,-1.49 v -3.67 h -1.08 v 6.48 h 1.08 v -1 c 0,0 0.36,0.59 0.87,0.88 0,0 0.51,0.28 1.21,0.28 0,0 0.7,0 1.2,-0.36 0,0 0.49,-0.36 0.73,-1.04 z"
       style="fill:#000000;fill-opacity:1;fill-rule:nonzero;stroke:none"
       transform="matrix(1.3333333,0,0,-1.3333333,0,533.33333)" />
    <path
       id="path92"
       d="m 164.81,349.74 c 0,0 -1.29,0 -1.79,-0.29 0,0 -0.5,-0.3 -0.5,-1.01 0,0 0,-0.57 0.37,-0.9 0,0 0.38,-0.33 1.02,-0.33 0,0 0.88,0 1.42,0.62 0,0 0.53,0.63 0.53,1.67 v 0.24 h -1.05 m 2.12,0.44 v -3.7 h -1.07 v 0.99 c 0,0 -0.36,-0.59 -0.9,-0.88 0,0 -0.55,-0.27 -1.33,-0.27 0,0 -1,0 -1.59,0.55 0,0 -0.58,0.56 -0.58,1.5 0,0 0,1.09 0.72,1.65 0,0 0.74,0.55 2.19,0.55 h 1.49 v 0.11 c 0,0 0,0.73 -0.48,1.13 0,0 -0.48,0.41 -1.36,0.41 0,0 -0.55,0 -1.08,-0.14 0,0 -0.52,-0.13 -1.01,-0.39 v 0.98 c 0,0 0.58,0.22 1.13,0.33 0,0 0.55,0.12 1.07,0.12 0,0 1.41,0 2.11,-0.73 0,0 0.69,-0.73 0.69,-2.21 z"
       style="fill:#000000;fill-opacity:1;fill-rule:nonzero;stroke:none"
       transform="matrix(1.3333333,0,0,-1.3333333,0,533.33333)" />
    <path
       id="path93"
       d="m 169.39,347.95 h 1.23 v -0.99 l -0.95,-1.85 h -0.75 l 0.47,1.85 z"
       style="fill:#000000;fill-opacity:1;fill-rule:nonzero;stroke:none"
       transform="matrix(1.3333333,0,0,-1.3333333,0,533.33333)" />
    <path
       id="path94"
       d="m 176.7,355.12 h 1.75 l 2.2,-5.88 2.22,5.88 h 1.74 v -8.64 h -1.14 v 7.59 l -2.23,-5.93 h -1.17 l -2.23,5.93 v -7.59 h -1.14 z"
       style="fill:#000000;fill-opacity:1;fill-rule:nonzero;stroke:none"
       transform="matrix(1.3333333,0,0,-1.3333333,0,533.33333)" />
    <path
       id="path95"
       d="m 192.43,349.99 v -0.52 h -4.9 c 0,0 0.07,-1.1 0.66,-1.68 0,0 0.6,-0.57 1.66,-0.57 0,0 0.61,0 1.18,0.15 0,0 0.58,0.15 1.15,0.45 v -1.01 c 0,0 -0.57,-0.24 -1.18,-0.37 0,0 -0.6,-0.12 -1.22,-0.12 0,0 -1.55,0 -2.46,0.9 0,0 -0.9,0.9 -0.9,2.44 0,0 0,1.59 0.86,2.52 0,0 0.86,0.94 2.32,0.94 0,0 1.31,0 2.06,-0.84 0,0 0.77,-0.84 0.77,-2.29 m -1.07,0.31 c 0,0 -0.01,0.88 -0.49,1.4 0,0 -0.47,0.52 -1.26,0.52 0,0 -0.89,0 -1.43,-0.51 0,0 -0.53,-0.5 -0.61,-1.41 z"
       style="fill:#000000;fill-opacity:1;fill-rule:nonzero;stroke:none"
       transform="matrix(1.3333333,0,0,-1.3333333,0,533.33333)" />
    <path
       id="path96"
       d="m 197.12,349.74 c 0,0 -1.29,0 -1.79,-0.29 0,0 -0.5,-0.3 -0.5,-1.01 0,0 0,-0.57 0.37,-0.9 0,0 0.38,-0.33 1.02,-0.33 0,0 0.89,0 1.42,0.62 0,0 0.54,0.63 0.54,1.67 v 0.24 h -1.06 m 2.12,0.44 v -3.7 h -1.06 v 0.99 c 0,0 -0.37,-0.59 -0.91,-0.88 0,0 -0.54,-0.27 -1.33,-0.27 0,0 -1,0 -1.59,0.55 0,0 -0.58,0.56 -0.58,1.5 0,0 0,1.09 0.73,1.65 0,0 0.73,0.55 2.19,0.55 h 1.49 v 0.11 c 0,0 0,0.73 -0.49,1.13 0,0 -0.48,0.41 -1.35,0.41 0,0 -0.56,0 -1.08,-0.14 0,0 -0.53,-0.13 -1.02,-0.39 v 0.98 c 0,0 0.59,0.22 1.14,0.33 0,0 0.55,0.12 1.07,0.12 0,0 1.41,0 2.1,-0.73 0,0 0.69,-0.73 0.69,-2.21 z"
       style="fill:#000000;fill-opacity:1;fill-rule:nonzero;stroke:none"
       transform="matrix(1.3333333,0,0,-1.3333333,0,533.33333)" />
    <path
       id="path97"
       d="m 206.83,350.39 v -3.91 h -1.07 v 3.88 c 0,0 0,0.92 -0.36,1.38 0,0 -0.36,0.45 -1.07,0.45 0,0 -0.87,0 -1.36,-0.55 0,0 -0.5,-0.54 -0.5,-1.49 v -3.67 h -1.07 v 6.48 h 1.07 v -1 c 0,0 0.38,0.58 0.89,0.87 0,0 0.53,0.29 1.2,0.29 0,0 1.12,0 1.69,-0.69 0,0 0.58,-0.69 0.58,-2.04 z"
       style="fill:#000000;fill-opacity:1;fill-rule:nonzero;stroke:none"
       transform="matrix(1.3333333,0,0,-1.3333333,0,533.33333)" />
    <path
       id="path98"
       d="m 216.85,352.77 v -1 c 0,0 -0.45,0.23 -0.94,0.34 0,0 -0.49,0.12 -1.01,0.12 0,0 -0.79,0 -1.19,-0.24 0,0 -0.39,-0.25 -0.39,-0.73 0,0 0,-0.37 0.28,-0.59 0,0 0.29,-0.21 1.14,-0.4 l 0.37,-0.08 c 0,0 1.13,-0.24 1.61,-0.69 0,0 0.48,-0.44 0.48,-1.23 0,0 0,-0.9 -0.72,-1.43 0,0 -0.71,-0.52 -1.96,-0.52 0,0 -0.52,0 -1.09,0.1 0,0 -0.56,0.1 -1.19,0.3 v 1.1 c 0,0 0.59,-0.31 1.17,-0.46 0,0 0.57,-0.15 1.13,-0.15 0,0 0.75,0 1.16,0.25 0,0 0.4,0.26 0.4,0.73 0,0 0,0.43 -0.29,0.67 0,0 -0.29,0.23 -1.28,0.44 l -0.37,0.09 c 0,0 -0.99,0.21 -1.43,0.63 0,0 -0.44,0.44 -0.44,1.19 0,0 0,0.92 0.65,1.41 0,0 0.64,0.5 1.84,0.5 0,0 0.59,0 1.11,-0.09 0,0 0.52,-0.08 0.96,-0.26 z"
       style="fill:#000000;fill-opacity:1;fill-rule:nonzero;stroke:none"
       transform="matrix(1.3333333,0,0,-1.3333333,0,533.33333)" />
    <path
       id="path99"
       d="m 218.78,349.04 v 3.92 h 1.07 v -3.88 c 0,0 0,-0.92 0.35,-1.38 0,0 0.36,-0.46 1.08,-0.46 0,0 0.86,0 1.36,0.55 0,0 0.5,0.55 0.5,1.5 v 3.67 h 1.07 v -6.48 h -1.07 v 1 c 0,0 -0.38,-0.59 -0.9,-0.88 0,0 -0.51,-0.28 -1.18,-0.28 0,0 -1.12,0 -1.7,0.69 0,0 -0.58,0.69 -0.58,2.03 m 2.68,4.08 z"
       style="fill:#000000;fill-opacity:1;fill-rule:nonzero;stroke:none"
       transform="matrix(1.3333333,0,0,-1.3333333,0,533.33333)" />
    <path
       id="path100"
       d="m 230.53,352.77 v -1 c 0,0 -0.45,0.23 -0.93,0.34 0,0 -0.49,0.12 -1.01,0.12 0,0 -0.79,0 -1.19,-0.24 0,0 -0.4,-0.25 -0.4,-0.73 0,0 0,-0.37 0.29,-0.59 0,0 0.28,-0.21 1.14,-0.4 l 0.36,-0.08 c 0,0 1.14,-0.24 1.61,-0.69 0,0 0.48,-0.44 0.48,-1.23 0,0 0,-0.9 -0.72,-1.43 0,0 -0.71,-0.52 -1.96,-0.52 0,0 -0.52,0 -1.09,0.1 0,0 -0.56,0.1 -1.18,0.3 v 1.1 c 0,0 0.59,-0.31 1.16,-0.46 0,0 0.57,-0.15 1.14,-0.15 0,0 0.75,0 1.15,0.25 0,0 0.41,0.26 0.41,0.73 0,0 0,0.43 -0.3,0.67 0,0 -0.29,0.23 -1.28,0.44 l -0.37,0.09 c 0,0 -0.99,0.21 -1.43,0.63 0,0 -0.44,0.44 -0.44,1.19 0,0 0,0.92 0.65,1.41 0,0 0.65,0.5 1.84,0.5 0,0 0.59,0 1.11,-0.09 0,0 0.52,-0.08 0.96,-0.26 z"
       style="fill:#000000;fill-opacity:1;fill-rule:nonzero;stroke:none"
       transform="matrix(1.3333333,0,0,-1.3333333,0,533.33333)" />
    <path
       id="path101"
       d="m 237.24,352.72 v -1 c 0,0 -0.45,0.25 -0.91,0.37 0,0 -0.45,0.13 -0.91,0.13 0,0 -1.04,0 -1.61,-0.66 0,0 -0.57,-0.66 -0.57,-1.84 0,0 0,-1.19 0.57,-1.85 0,0 0.57,-0.65 1.61,-0.65 0,0 0.46,0 0.91,0.12 0,0 0.46,0.13 0.91,0.38 v -0.99 c 0,0 -0.44,-0.21 -0.92,-0.31 0,0 -0.48,-0.1 -1.02,-0.1 0,0 -1.46,0 -2.32,0.92 0,0 -0.87,0.92 -0.87,2.48 0,0 0,1.58 0.87,2.49 0,0 0.88,0.91 2.39,0.91 0,0 0.49,0 0.96,-0.1 0,0 0.47,-0.1 0.91,-0.3 z"
       style="fill:#000000;fill-opacity:1;fill-rule:nonzero;stroke:none"
       transform="matrix(1.3333333,0,0,-1.3333333,0,533.33333)" />
    <path
       id="path102"
       d="m 244.64,349.99 v -0.52 h -4.9 c 0,0 0.07,-1.1 0.66,-1.68 0,0 0.6,-0.57 1.66,-0.57 0,0 0.61,0 1.18,0.15 0,0 0.58,0.15 1.15,0.45 v -1.01 c 0,0 -0.57,-0.24 -1.18,-0.37 0,0 -0.6,-0.12 -1.22,-0.12 0,0 -1.55,0 -2.46,0.9 0,0 -0.9,0.9 -0.9,2.44 0,0 0,1.59 0.86,2.52 0,0 0.86,0.94 2.32,0.94 0,0 1.31,0 2.06,-0.84 0,0 0.77,-0.84 0.77,-2.29 m -1.07,0.31 c 0,0 -0.01,0.88 -0.49,1.4 0,0 -0.47,0.52 -1.26,0.52 0,0 -0.89,0 -1.43,-0.51 0,0 -0.53,-0.5 -0.61,-1.41 z"
       style="fill:#000000;fill-opacity:1;fill-rule:nonzero;stroke:none"
       transform="matrix(1.3333333,0,0,-1.3333333,0,533.33333)" />
    <path
       id="path103"
       d="m 247.42,347.46 v -3.44 h -1.08 v 8.94 h 1.08 v -0.98 c 0,0 0.33,0.58 0.84,0.86 0,0 0.52,0.28 1.23,0.28 0,0 1.18,0 1.91,-0.94 0,0 0.74,-0.93 0.74,-2.46 0,0 0,-1.53 -0.74,-2.47 0,0 -0.73,-0.93 -1.91,-0.93 0,0 -0.71,0 -1.23,0.27 0,0 -0.51,0.29 -0.84,0.87 m 3.62,2.26 c 0,0 0,1.17 -0.49,1.84 0,0 -0.48,0.67 -1.32,0.67 0,0 -0.85,0 -1.33,-0.67 0,0 -0.48,-0.67 -0.48,-1.84 0,0 0,-1.18 0.48,-1.85 0,0 0.48,-0.66 1.33,-0.66 0,0 0.84,0 1.32,0.66 0,0 0.49,0.67 0.49,1.85 z"
       style="fill:#000000;fill-opacity:1;fill-rule:nonzero;stroke:none"
       transform="matrix(1.3333333,0,0,-1.3333333,0,533.33333)" />
    <path
       id="path104"
       d="m 254.96,354.8 v -1.84 h 2.19 v -0.82 h -2.19 v -3.52 c 0,0 0,-0.79 0.22,-1.02 0,0 0.22,-0.23 0.88,-0.23 h 1.09 v -0.89 h -1.09 c 0,0 -1.23,0 -1.7,0.46 0,0 -0.47,0.46 -0.47,1.68 v 3.52 h -0.78 v 0.82 h 0.78 v 1.84 z"
       style="fill:#000000;fill-opacity:1;fill-rule:nonzero;stroke:none"
       transform="matrix(1.3333333,0,0,-1.3333333,0,533.33333)" />
    <path
       id="path105"
       d="m 258.56,352.96 h 1.06 v -6.48 h -1.06 v 6.48 m 0,2.53 h 1.06 v -1.35 h -1.06 z"
       style="fill:#000000;fill-opacity:1;fill-rule:nonzero;stroke:none"
       transform="matrix(1.3333333,0,0,-1.3333333,0,533.33333)" />
    <path
       id="path106"
       d="m 266.5,349.72 c 0,0 0,1.17 -0.49,1.84 0,0 -0.48,0.67 -1.32,0.67 0,0 -0.85,0 -1.33,-0.67 0,0 -0.48,-0.67 -0.48,-1.84 0,0 0,-1.18 0.48,-1.85 0,0 0.48,-0.66 1.33,-0.66 0,0 0.84,0 1.32,0.66 0,0 0.49,0.67 0.49,1.85 m -3.62,2.26 c 0,0 0.33,0.58 0.84,0.86 0,0 0.52,0.28 1.23,0.28 0,0 1.18,0 1.92,-0.94 0,0 0.74,-0.93 0.74,-2.46 0,0 0,-1.53 -0.74,-2.47 0,0 -0.74,-0.93 -1.92,-0.93 0,0 -0.71,0 -1.23,0.27 0,0 -0.51,0.29 -0.84,0.87 v -0.98 h -1.07 v 9.01 h 1.07 z"
       style="fill:#000000;fill-opacity:1;fill-rule:nonzero;stroke:none"
       transform="matrix(1.3333333,0,0,-1.3333333,0,533.33333)" />
    <path
       id="path107"
       d="m 269.37,355.49 h 1.07 v -9.01 h -1.07 z"
       style="fill:#000000;fill-opacity:1;fill-rule:nonzero;stroke:none"
       transform="matrix(1.3333333,0,0,-1.3333333,0,533.33333)" />
    <path
       id="path108"
       d="m 278.21,349.99 v -0.52 h -4.9 c 0,0 0.07,-1.1 0.66,-1.68 0,0 0.6,-0.57 1.66,-0.57 0,0 0.61,0 1.18,0.15 0,0 0.58,0.15 1.15,0.45 v -1.01 c 0,0 -0.57,-0.24 -1.18,-0.37 0,0 -0.6,-0.12 -1.22,-0.12 0,0 -1.55,0 -2.46,0.9 0,0 -0.9,0.9 -0.9,2.44 0,0 0,1.59 0.86,2.52 0,0 0.86,0.94 2.32,0.94 0,0 1.31,0 2.06,-0.84 0,0 0.77,-0.84 0.77,-2.29 m -1.07,0.31 c 0,0 -0.01,0.88 -0.49,1.4 0,0 -0.47,0.52 -1.26,0.52 0,0 -0.89,0 -1.43,-0.51 0,0 -0.53,-0.5 -0.61,-1.41 z"
       style="fill:#000000;fill-opacity:1;fill-rule:nonzero;stroke:none"
       transform="matrix(1.3333333,0,0,-1.3333333,0,533.33333)" />
    <path
       id="path109"
       d="m 284.75,347.46 v -3.44 h -1.07 v 8.94 h 1.07 v -0.98 c 0,0 0.34,0.58 0.85,0.86 0,0 0.51,0.28 1.22,0.28 0,0 1.19,0 1.92,-0.94 0,0 0.74,-0.93 0.74,-2.46 0,0 0,-1.53 -0.74,-2.47 0,0 -0.73,-0.93 -1.92,-0.93 0,0 -0.71,0 -1.22,0.27 0,0 -0.51,0.29 -0.85,0.87 m 3.63,2.26 c 0,0 0,1.17 -0.49,1.84 0,0 -0.48,0.67 -1.33,0.67 0,0 -0.84,0 -1.33,-0.67 0,0 -0.48,-0.67 -0.48,-1.84 0,0 0,-1.18 0.48,-1.85 0,0 0.49,-0.66 1.33,-0.66 0,0 0.85,0 1.33,0.66 0,0 0.49,0.67 0.49,1.85 z"
       style="fill:#000000;fill-opacity:1;fill-rule:nonzero;stroke:none"
       transform="matrix(1.3333333,0,0,-1.3333333,0,533.33333)" />
    <path
       id="path110"
       d="m 293.76,352.22 c 0,0 -0.86,0 -1.36,-0.67 0,0 -0.49,-0.67 -0.49,-1.83 0,0 0,-1.17 0.49,-1.84 0,0 0.5,-0.66 1.36,-0.66 0,0 0.85,0 1.35,0.67 0,0 0.49,0.67 0.49,1.83 0,0 0,1.15 -0.49,1.82 0,0 -0.5,0.68 -1.35,0.68 m 0,0.9 c 0,0 1.39,0 2.18,-0.9 0,0 0.79,-0.91 0.79,-2.5 0,0 0,-1.59 -0.79,-2.5 0,0 -0.79,-0.9 -2.18,-0.9 0,0 -1.4,0 -2.19,0.9 0,0 -0.79,0.91 -0.79,2.5 0,0 0,1.59 0.79,2.5 0,0 0.79,0.9 2.19,0.9 z"
       style="fill:#000000;fill-opacity:1;fill-rule:nonzero;stroke:none"
       transform="matrix(1.3333333,0,0,-1.3333333,0,533.33333)" />
    <path
       id="path111"
       d="m 299.53,347.46 v -3.44 h -1.07 v 8.94 h 1.07 v -0.98 c 0,0 0.33,0.58 0.84,0.86 0,0 0.52,0.28 1.23,0.28 0,0 1.18,0 1.91,-0.94 0,0 0.75,-0.93 0.75,-2.46 0,0 0,-1.53 -0.75,-2.47 0,0 -0.73,-0.93 -1.91,-0.93 0,0 -0.71,0 -1.23,0.27 0,0 -0.51,0.29 -0.84,0.87 m 3.62,2.26 c 0,0 0,1.17 -0.49,1.84 0,0 -0.48,0.67 -1.32,0.67 0,0 -0.85,0 -1.33,-0.67 0,0 -0.48,-0.67 -0.48,-1.84 0,0 0,-1.18 0.48,-1.85 0,0 0.48,-0.66 1.33,-0.66 0,0 0.84,0 1.32,0.66 0,0 0.49,0.67 0.49,1.85 z"
       style="fill:#000000;fill-opacity:1;fill-rule:nonzero;stroke:none"
       transform="matrix(1.3333333,0,0,-1.3333333,0,533.33333)" />
    <path
       id="path112"
       d="m 305.91,349.04 v 3.92 h 1.07 v -3.88 c 0,0 0,-0.92 0.35,-1.38 0,0 0.36,-0.46 1.08,-0.46 0,0 0.86,0 1.36,0.55 0,0 0.5,0.55 0.5,1.5 v 3.67 h 1.07 v -6.48 h -1.07 v 1 c 0,0 -0.38,-0.59 -0.9,-0.88 0,0 -0.51,-0.28 -1.19,-0.28 0,0 -1.11,0 -1.69,0.69 0,0 -0.58,0.69 -0.58,2.03 m 2.68,4.08 z"
       style="fill:#000000;fill-opacity:1;fill-rule:nonzero;stroke:none"
       transform="matrix(1.3333333,0,0,-1.3333333,0,533.33333)" />
    <path
       id="path113"
       d="m 313.53,355.49 h 1.07 v -9.01 h -1.07 z"
       style="fill:#000000;fill-opacity:1;fill-rule:nonzero;stroke:none"
       transform="matrix(1.3333333,0,0,-1.3333333,0,533.33333)" />
    <path
       id="path114"
       d="m 319.77,349.74 c 0,0 -1.29,0 -1.79,-0.29 0,0 -0.5,-0.3 -0.5,-1.01 0,0 0,-0.57 0.37,-0.9 0,0 0.38,-0.33 1.02,-0.33 0,0 0.89,0 1.42,0.62 0,0 0.54,0.63 0.54,1.67 v 0.24 h -1.06 m 2.12,0.44 v -3.7 h -1.06 v 0.99 c 0,0 -0.37,-0.59 -0.91,-0.88 0,0 -0.54,-0.27 -1.33,-0.27 0,0 -1,0 -1.59,0.55 0,0 -0.58,0.56 -0.58,1.5 0,0 0,1.09 0.73,1.65 0,0 0.73,0.55 2.19,0.55 h 1.49 v 0.11 c 0,0 0,0.73 -0.49,1.13 0,0 -0.48,0.41 -1.35,0.41 0,0 -0.56,0 -1.08,-0.14 0,0 -0.53,-0.13 -1.02,-0.39 v 0.98 c 0,0 0.59,0.22 1.14,0.33 0,0 0.55,0.12 1.07,0.12 0,0 1.41,0 2.1,-0.73 0,0 0.69,-0.73 0.69,-2.21 z"
       style="fill:#000000;fill-opacity:1;fill-rule:nonzero;stroke:none"
       transform="matrix(1.3333333,0,0,-1.3333333,0,533.33333)" />
    <path
       id="path115"
       d="m 325.14,354.8 v -1.84 h 2.19 v -0.82 h -2.19 v -3.52 c 0,0 0,-0.79 0.21,-1.02 0,0 0.22,-0.23 0.89,-0.23 h 1.09 v -0.89 h -1.09 c 0,0 -1.23,0 -1.7,0.46 0,0 -0.47,0.46 -0.47,1.68 v 3.52 h -0.78 v 0.82 h 0.78 v 1.84 z"
       style="fill:#000000;fill-opacity:1;fill-rule:nonzero;stroke:none"
       transform="matrix(1.3333333,0,0,-1.3333333,0,533.33333)" />
    <path
       id="path116"
       d="m 328.73,352.96 h 1.07 v -6.48 h -1.07 v 6.48 m 0,2.53 h 1.07 v -1.35 h -1.07 z"
       style="fill:#000000;fill-opacity:1;fill-rule:nonzero;stroke:none"
       transform="matrix(1.3333333,0,0,-1.3333333,0,533.33333)" />
    <path
       id="path117"
       d="m 334.54,352.22 c 0,0 -0.86,0 -1.36,-0.67 0,0 -0.49,-0.67 -0.49,-1.83 0,0 0,-1.17 0.49,-1.84 0,0 0.5,-0.66 1.36,-0.66 0,0 0.85,0 1.35,0.67 0,0 0.49,0.67 0.49,1.83 0,0 0,1.15 -0.49,1.82 0,0 -0.5,0.68 -1.35,0.68 m 0,0.9 c 0,0 1.39,0 2.18,-0.9 0,0 0.79,-0.91 0.79,-2.5 0,0 0,-1.59 -0.79,-2.5 0,0 -0.79,-0.9 -2.18,-0.9 0,0 -1.4,0 -2.19,0.9 0,0 -0.79,0.91 -0.79,2.5 0,0 0,1.59 0.79,2.5 0,0 0.79,0.9 2.19,0.9 z"
       style="fill:#000000;fill-opacity:1;fill-rule:nonzero;stroke:none"
       transform="matrix(1.3333333,0,0,-1.3333333,0,533.33333)" />
    <path
       id="path118"
       d="m 344.67,350.39 v -3.91 h -1.07 v 3.88 c 0,0 0,0.92 -0.36,1.38 0,0 -0.36,0.45 -1.07,0.45 0,0 -0.87,0 -1.36,-0.55 0,0 -0.5,-0.54 -0.5,-1.49 v -3.67 h -1.07 v 6.48 h 1.07 v -1 c 0,0 0.38,0.58 0.9,0.87 0,0 0.52,0.29 1.19,0.29 0,0 1.12,0 1.69,-0.69 0,0 0.58,-0.69 0.58,-2.04 z"
       style="fill:#000000;fill-opacity:1;fill-rule:nonzero;stroke:none"
       transform="matrix(1.3333333,0,0,-1.3333333,0,533.33333)" />
    <path
       id="path119"
       d="m 99.99,342.96 c -2.82,0 -5.12,-2.29 -5.12,-5.12 0,-2.82 2.3,-5.12 5.12,-5.12 2.83,0 5.12,2.3 5.12,5.12 0,2.83 -2.29,5.12 -5.12,5.12 z"
       style="fill:#3ea44e;fill-opacity:1;fill-rule:evenodd;stroke:#000000;stroke-width:0.9102;stroke-linecap:round;stroke-linejoin:round;stroke-miterlimit:10;stroke-dasharray:none;stroke-opacity:1"
       transform="matrix(1.3333333,0,0,-1.3333333,0,533.33333)" />
    <path
       id="path120"
       d="m 128.21,336.76 c 0,0 0,1.17 -0.48,1.84 0,0 -0.48,0.67 -1.33,0.67 0,0 -0.84,0 -1.33,-0.67 0,0 -0.48,-0.67 -0.48,-1.84 0,0 0,-1.18 0.48,-1.85 0,0 0.49,-0.66 1.33,-0.66 0,0 0.85,0 1.33,0.66 0,0 0.48,0.67 0.48,1.85 m -3.62,2.26 c 0,0 0.34,0.58 0.85,0.86 0,0 0.51,0.28 1.22,0.28 0,0 1.18,0 1.92,-0.94 0,0 0.74,-0.93 0.74,-2.46 0,0 0,-1.53 -0.74,-2.47 0,0 -0.74,-0.93 -1.92,-0.93 0,0 -0.71,0 -1.22,0.27 0,0 -0.51,0.29 -0.85,0.87 v -0.98 h -1.07 v 9.01 h 1.07 z"
       style="fill:#000000;fill-opacity:1;fill-rule:nonzero;stroke:none"
       transform="matrix(1.3333333,0,0,-1.3333333,0,533.33333)" />
    <path
       id="path121"
       d="m 136.63,337.03 v -0.52 h -4.9 c 0,0 0.07,-1.1 0.66,-1.68 0,0 0.6,-0.57 1.66,-0.57 0,0 0.61,0 1.18,0.15 0,0 0.58,0.15 1.15,0.45 v -1.01 c 0,0 -0.57,-0.24 -1.17,-0.37 0,0 -0.61,-0.12 -1.23,-0.12 0,0 -1.55,0 -2.46,0.9 0,0 -0.9,0.9 -0.9,2.44 0,0 0,1.59 0.86,2.52 0,0 0.86,0.94 2.32,0.94 0,0 1.31,0 2.06,-0.84 0,0 0.77,-0.84 0.77,-2.29 m -1.07,0.31 c 0,0 -0.01,0.88 -0.49,1.4 0,0 -0.47,0.52 -1.26,0.52 0,0 -0.89,0 -1.43,-0.51 0,0 -0.53,-0.5 -0.61,-1.41 z"
       style="fill:#000000;fill-opacity:1;fill-rule:nonzero;stroke:none"
       transform="matrix(1.3333333,0,0,-1.3333333,0,533.33333)" />
    <path
       id="path122"
       d="M 139.43,341.84 V 340 h 2.19 v -0.82 h -2.19 v -3.52 c 0,0 0,-0.79 0.21,-1.02 0,0 0.22,-0.23 0.89,-0.23 h 1.09 v -0.89 h -1.09 c 0,0 -1.23,0 -1.7,0.46 0,0 -0.47,0.46 -0.47,1.68 v 3.52 h -0.78 V 340 h 0.78 v 1.84 z"
       style="fill:#000000;fill-opacity:1;fill-rule:nonzero;stroke:none"
       transform="matrix(1.3333333,0,0,-1.3333333,0,533.33333)" />
    <path
       id="path123"
       d="m 145.97,336.78 c 0,0 -1.29,0 -1.79,-0.29 0,0 -0.5,-0.3 -0.5,-1.01 0,0 0,-0.57 0.37,-0.9 0,0 0.38,-0.33 1.02,-0.33 0,0 0.89,0 1.42,0.62 0,0 0.54,0.63 0.54,1.67 v 0.24 h -1.06 m 2.12,0.44 v -3.7 h -1.06 v 0.99 c 0,0 -0.37,-0.59 -0.91,-0.88 0,0 -0.54,-0.27 -1.33,-0.27 0,0 -1,0 -1.59,0.55 0,0 -0.58,0.56 -0.58,1.5 0,0 0,1.09 0.73,1.65 0,0 0.73,0.55 2.19,0.55 h 1.49 v 0.11 c 0,0 0,0.73 -0.49,1.13 0,0 -0.48,0.41 -1.35,0.41 0,0 -0.56,0 -1.08,-0.14 0,0 -0.53,-0.13 -1.02,-0.39 v 0.98 c 0,0 0.59,0.22 1.14,0.33 0,0 0.55,0.12 1.07,0.12 0,0 1.4,0 2.1,-0.73 0,0 0.69,-0.73 0.69,-2.21 z"
       style="fill:#000000;fill-opacity:1;fill-rule:nonzero;stroke:none"
       transform="matrix(1.3333333,0,0,-1.3333333,0,533.33333)" />
    <path
       id="path124"
       d="m 150.56,334.99 h 1.22 V 334 l -0.95,-1.85 h -0.75 l 0.48,1.85 z"
       style="fill:#000000;fill-opacity:1;fill-rule:nonzero;stroke:none"
       transform="matrix(1.3333333,0,0,-1.3333333,0,533.33333)" />
    <path
       id="path125"
       d="m 157.87,342.16 h 1.74 l 2.2,-5.88 2.22,5.88 h 1.74 v -8.64 h -1.14 v 7.59 l -2.23,-5.93 h -1.17 l -2.23,5.93 v -7.59 h -1.13 z"
       style="fill:#000000;fill-opacity:1;fill-rule:nonzero;stroke:none"
       transform="matrix(1.3333333,0,0,-1.3333333,0,533.33333)" />
    <path
       id="path126"
       d="m 170.99,336.78 c 0,0 -1.29,0 -1.79,-0.29 0,0 -0.49,-0.3 -0.49,-1.01 0,0 0,-0.57 0.37,-0.9 0,0 0.37,-0.33 1.02,-0.33 0,0 0.88,0 1.41,0.62 0,0 0.54,0.63 0.54,1.67 v 0.24 h -1.06 m 2.13,0.44 v -3.7 h -1.07 v 0.99 c 0,0 -0.36,-0.59 -0.91,-0.88 0,0 -0.54,-0.27 -1.33,-0.27 0,0 -0.99,0 -1.58,0.55 0,0 -0.59,0.56 -0.59,1.5 0,0 0,1.09 0.73,1.65 0,0 0.74,0.55 2.19,0.55 h 1.49 v 0.11 c 0,0 0,0.73 -0.48,1.13 0,0 -0.49,0.41 -1.36,0.41 0,0 -0.55,0 -1.08,-0.14 0,0 -0.53,-0.13 -1.01,-0.39 v 0.98 c 0,0 0.58,0.22 1.13,0.33 0,0 0.55,0.12 1.07,0.12 0,0 1.41,0 2.1,-0.73 0,0 0.7,-0.73 0.7,-2.21 z"
       style="fill:#000000;fill-opacity:1;fill-rule:nonzero;stroke:none"
       transform="matrix(1.3333333,0,0,-1.3333333,0,533.33333)" />
    <path
       id="path127"
       d="m 180.7,340 -2.35,-3.15 2.47,-3.33 h -1.26 l -1.88,2.55 -1.89,-2.55 h -1.26 l 2.52,3.39 -2.3,3.09 H 176 l 1.72,-2.3 1.72,2.3 z"
       style="fill:#000000;fill-opacity:1;fill-rule:nonzero;stroke:none"
       transform="matrix(1.3333333,0,0,-1.3333333,0,533.33333)" />
    <path
       id="path128"
       d="m 182.32,340 h 1.07 v -6.48 h -1.07 V 340 m 0,2.53 h 1.07 v -1.35 h -1.07 z"
       style="fill:#000000;fill-opacity:1;fill-rule:nonzero;stroke:none"
       transform="matrix(1.3333333,0,0,-1.3333333,0,533.33333)" />
    <path
       id="path129"
       d="m 190.66,338.76 c 0,0 0.4,0.72 0.96,1.06 0,0 0.55,0.34 1.3,0.34 0,0 1.02,0 1.57,-0.71 0,0 0.55,-0.71 0.55,-2.02 v -3.91 h -1.07 v 3.88 c 0,0 0,0.93 -0.33,1.38 0,0 -0.33,0.45 -1.01,0.45 0,0 -0.83,0 -1.31,-0.55 0,0 -0.48,-0.54 -0.48,-1.49 v -3.67 h -1.07 v 3.88 c 0,0 0,0.94 -0.33,1.38 0,0 -0.33,0.45 -1.02,0.45 0,0 -0.81,0 -1.29,-0.55 0,0 -0.48,-0.55 -0.48,-1.49 v -3.67 h -1.07 V 340 h 1.07 v -1 c 0,0 0.36,0.59 0.87,0.88 0,0 0.51,0.28 1.21,0.28 0,0 0.71,0 1.2,-0.36 0,0 0.49,-0.36 0.73,-1.04 z"
       style="fill:#000000;fill-opacity:1;fill-rule:nonzero;stroke:none"
       transform="matrix(1.3333333,0,0,-1.3333333,0,533.33333)" />
    <path
       id="path130"
       d="M 197.05,336.08 V 340 h 1.07 v -3.88 c 0,0 0,-0.92 0.35,-1.38 0,0 0.36,-0.46 1.08,-0.46 0,0 0.86,0 1.36,0.55 0,0 0.5,0.55 0.5,1.5 V 340 h 1.07 v -6.48 h -1.07 v 1 c 0,0 -0.38,-0.59 -0.9,-0.88 0,0 -0.51,-0.28 -1.18,-0.28 0,0 -1.12,0 -1.7,0.69 0,0 -0.58,0.69 -0.58,2.03 m 2.68,4.08 z"
       style="fill:#000000;fill-opacity:1;fill-rule:nonzero;stroke:none"
       transform="matrix(1.3333333,0,0,-1.3333333,0,533.33333)" />
    <path
       id="path131"
       d="m 209.72,338.76 c 0,0 0.4,0.72 0.95,1.06 0,0 0.56,0.34 1.31,0.34 0,0 1.01,0 1.56,-0.71 0,0 0.55,-0.71 0.55,-2.02 v -3.91 h -1.07 v 3.88 c 0,0 0,0.93 -0.33,1.38 0,0 -0.33,0.45 -1,0.45 0,0 -0.83,0 -1.31,-0.55 0,0 -0.48,-0.54 -0.48,-1.49 v -3.67 h -1.07 v 3.88 c 0,0 0,0.94 -0.33,1.38 0,0 -0.33,0.45 -1.02,0.45 0,0 -0.82,0 -1.3,-0.55 0,0 -0.48,-0.55 -0.48,-1.49 v -3.67 h -1.07 V 340 h 1.07 v -1 c 0,0 0.37,0.59 0.88,0.88 0,0 0.51,0.28 1.21,0.28 0,0 0.7,0 1.19,-0.36 0,0 0.5,-0.36 0.74,-1.04 z"
       style="fill:#000000;fill-opacity:1;fill-rule:nonzero;stroke:none"
       transform="matrix(1.3333333,0,0,-1.3333333,0,533.33333)" />
    <path
       id="path132"
       d="m 219.98,340 h 1.07 v -6.48 h -1.07 V 340 m 0,2.53 h 1.07 v -1.35 h -1.07 z"
       style="fill:#000000;fill-opacity:1;fill-rule:nonzero;stroke:none"
       transform="matrix(1.3333333,0,0,-1.3333333,0,533.33333)" />
    <path
       id="path133"
       d="m 228.67,337.43 v -3.91 h -1.07 v 3.88 c 0,0 0,0.92 -0.36,1.38 0,0 -0.36,0.45 -1.07,0.45 0,0 -0.87,0 -1.36,-0.55 0,0 -0.5,-0.54 -0.5,-1.49 v -3.67 h -1.07 V 340 h 1.07 v -1 c 0,0 0.38,0.58 0.89,0.87 0,0 0.53,0.29 1.2,0.29 0,0 1.12,0 1.69,-0.69 0,0 0.58,-0.69 0.58,-2.04 z"
       style="fill:#000000;fill-opacity:1;fill-rule:nonzero;stroke:none"
       transform="matrix(1.3333333,0,0,-1.3333333,0,533.33333)" />
    <path
       id="path134"
       d="m 234.07,342.53 v -0.89 h -1.02 c 0,0 -0.57,0 -0.8,-0.23 0,0 -0.22,-0.23 -0.22,-0.83 V 340 h 1.76 v -0.82 h -1.76 v -5.66 h -1.07 v 5.66 h -1.02 V 340 h 1.02 v 0.46 c 0,0 0,1.08 0.51,1.57 0,0 0.5,0.5 1.59,0.5 z"
       style="fill:#000000;fill-opacity:1;fill-rule:nonzero;stroke:none"
       transform="matrix(1.3333333,0,0,-1.3333333,0,533.33333)" />
    <path
       id="path135"
       d="m 240.51,337.03 v -0.52 h -4.9 c 0,0 0.07,-1.1 0.66,-1.68 0,0 0.6,-0.57 1.65,-0.57 0,0 0.62,0 1.19,0.15 0,0 0.58,0.15 1.15,0.45 v -1.01 c 0,0 -0.58,-0.24 -1.18,-0.37 0,0 -0.6,-0.12 -1.22,-0.12 0,0 -1.55,0 -2.46,0.9 0,0 -0.9,0.9 -0.9,2.44 0,0 0,1.59 0.86,2.52 0,0 0.86,0.94 2.32,0.94 0,0 1.3,0 2.06,-0.84 0,0 0.77,-0.84 0.77,-2.29 m -1.07,0.31 c 0,0 -0.01,0.88 -0.49,1.4 0,0 -0.48,0.52 -1.26,0.52 0,0 -0.89,0 -1.43,-0.51 0,0 -0.53,-0.5 -0.62,-1.41 z"
       style="fill:#000000;fill-opacity:1;fill-rule:nonzero;stroke:none"
       transform="matrix(1.3333333,0,0,-1.3333333,0,533.33333)" />
    <path
       id="path136"
       d="m 246.92,339.76 v -1 c 0,0 -0.45,0.25 -0.91,0.37 0,0 -0.45,0.13 -0.92,0.13 0,0 -1.03,0 -1.6,-0.66 0,0 -0.58,-0.66 -0.58,-1.84 0,0 0,-1.19 0.58,-1.85 0,0 0.57,-0.65 1.6,-0.65 0,0 0.47,0 0.92,0.12 0,0 0.46,0.13 0.91,0.38 v -0.99 c 0,0 -0.45,-0.21 -0.93,-0.31 0,0 -0.47,-0.1 -1.01,-0.1 0,0 -1.47,0 -2.33,0.92 0,0 -0.86,0.92 -0.86,2.48 0,0 0,1.58 0.87,2.49 0,0 0.87,0.91 2.39,0.91 0,0 0.49,0 0.96,-0.1 0,0 0.47,-0.1 0.91,-0.3 z"
       style="fill:#000000;fill-opacity:1;fill-rule:nonzero;stroke:none"
       transform="matrix(1.3333333,0,0,-1.3333333,0,533.33333)" />
    <path
       id="path137"
       d="M 249.82,341.84 V 340 h 2.2 v -0.82 h -2.2 v -3.52 c 0,0 0,-0.79 0.22,-1.02 0,0 0.22,-0.23 0.88,-0.23 h 1.1 v -0.89 h -1.1 c 0,0 -1.23,0 -1.7,0.46 0,0 -0.47,0.46 -0.47,1.68 v 3.52 h -0.78 V 340 h 0.78 v 1.84 z"
       style="fill:#000000;fill-opacity:1;fill-rule:nonzero;stroke:none"
       transform="matrix(1.3333333,0,0,-1.3333333,0,533.33333)" />
    <path
       id="path138"
       d="m 258.96,337.03 v -0.52 h -4.9 c 0,0 0.07,-1.1 0.66,-1.68 0,0 0.6,-0.57 1.66,-0.57 0,0 0.61,0 1.19,0.15 0,0 0.57,0.15 1.14,0.45 v -1.01 c 0,0 -0.57,-0.24 -1.17,-0.37 0,0 -0.61,-0.12 -1.22,-0.12 0,0 -1.56,0 -2.46,0.9 0,0 -0.91,0.9 -0.91,2.44 0,0 0,1.59 0.86,2.52 0,0 0.86,0.94 2.32,0.94 0,0 1.31,0 2.07,-0.84 0,0 0.76,-0.84 0.76,-2.29 m -1.06,0.31 c 0,0 -0.02,0.88 -0.5,1.4 0,0 -0.47,0.52 -1.26,0.52 0,0 -0.89,0 -1.43,-0.51 0,0 -0.53,-0.5 -0.61,-1.41 z"
       style="fill:#000000;fill-opacity:1;fill-rule:nonzero;stroke:none"
       transform="matrix(1.3333333,0,0,-1.3333333,0,533.33333)" />
    <path
       id="path139"
       d="m 264.97,339.02 v 3.51 h 1.07 v -9.01 h -1.07 v 0.98 c 0,0 -0.33,-0.58 -0.85,-0.87 0,0 -0.51,-0.27 -1.22,-0.27 0,0 -1.18,0 -1.92,0.93 0,0 -0.73,0.94 -0.73,2.47 0,0 0,1.53 0.73,2.46 0,0 0.74,0.94 1.92,0.94 0,0 0.71,0 1.22,-0.28 0,0 0.52,-0.28 0.85,-0.86 m -3.63,-2.26 c 0,0 0,-1.18 0.48,-1.85 0,0 0.49,-0.66 1.34,-0.66 0,0 0.84,0 1.33,0.66 0,0 0.48,0.67 0.48,1.85 0,0 0,1.17 -0.48,1.84 0,0 -0.49,0.67 -1.33,0.67 0,0 -0.85,0 -1.34,-0.67 0,0 -0.48,-0.67 -0.48,-1.84 z"
       style="fill:#000000;fill-opacity:1;fill-rule:nonzero;stroke:none"
       transform="matrix(1.3333333,0,0,-1.3333333,0,533.33333)" />
    <path
       id="path140"
       d="m 273.03,334.5 v -3.44 h -1.07 V 340 h 1.07 v -0.98 c 0,0 0.33,0.58 0.84,0.86 0,0 0.52,0.28 1.23,0.28 0,0 1.18,0 1.92,-0.94 0,0 0.74,-0.93 0.74,-2.46 0,0 0,-1.53 -0.74,-2.47 0,0 -0.74,-0.93 -1.92,-0.93 0,0 -0.71,0 -1.23,0.27 0,0 -0.51,0.29 -0.84,0.87 m 3.62,2.26 c 0,0 0,1.17 -0.48,1.84 0,0 -0.49,0.67 -1.33,0.67 0,0 -0.84,0 -1.33,-0.67 0,0 -0.48,-0.67 -0.48,-1.84 0,0 0,-1.18 0.48,-1.85 0,0 0.49,-0.66 1.33,-0.66 0,0 0.84,0 1.33,0.66 0,0 0.48,0.67 0.48,1.85 z"
       style="fill:#000000;fill-opacity:1;fill-rule:nonzero;stroke:none"
       transform="matrix(1.3333333,0,0,-1.3333333,0,533.33333)" />
    <path
       id="path141"
       d="m 282.03,339.26 c 0,0 -0.85,0 -1.35,-0.67 0,0 -0.5,-0.67 -0.5,-1.83 0,0 0,-1.17 0.49,-1.84 0,0 0.5,-0.66 1.36,-0.66 0,0 0.85,0 1.35,0.67 0,0 0.5,0.67 0.5,1.83 0,0 0,1.15 -0.5,1.82 0,0 -0.5,0.68 -1.35,0.68 m 0,0.9 c 0,0 1.39,0 2.18,-0.9 0,0 0.8,-0.91 0.8,-2.5 0,0 0,-1.59 -0.8,-2.5 0,0 -0.79,-0.9 -2.18,-0.9 0,0 -1.39,0 -2.18,0.9 0,0 -0.79,0.91 -0.79,2.5 0,0 0,1.59 0.79,2.5 0,0 0.79,0.9 2.18,0.9 z"
       style="fill:#000000;fill-opacity:1;fill-rule:nonzero;stroke:none"
       transform="matrix(1.3333333,0,0,-1.3333333,0,533.33333)" />
    <path
       id="path142"
       d="m 287.8,334.5 v -3.44 h -1.07 V 340 h 1.07 v -0.98 c 0,0 0.34,0.58 0.85,0.86 0,0 0.51,0.28 1.22,0.28 0,0 1.19,0 1.92,-0.94 0,0 0.74,-0.93 0.74,-2.46 0,0 0,-1.53 -0.74,-2.47 0,0 -0.73,-0.93 -1.92,-0.93 0,0 -0.71,0 -1.22,0.27 0,0 -0.51,0.29 -0.85,0.87 m 3.63,2.26 c 0,0 0,1.17 -0.49,1.84 0,0 -0.48,0.67 -1.33,0.67 0,0 -0.84,0 -1.33,-0.67 0,0 -0.48,-0.67 -0.48,-1.84 0,0 0,-1.18 0.48,-1.85 0,0 0.49,-0.66 1.33,-0.66 0,0 0.85,0 1.33,0.66 0,0 0.49,0.67 0.49,1.85 z"
       style="fill:#000000;fill-opacity:1;fill-rule:nonzero;stroke:none"
       transform="matrix(1.3333333,0,0,-1.3333333,0,533.33333)" />
    <path
       id="path143"
       d="M 294.19,336.08 V 340 h 1.06 v -3.88 c 0,0 0,-0.92 0.36,-1.38 0,0 0.36,-0.46 1.08,-0.46 0,0 0.86,0 1.36,0.55 0,0 0.5,0.55 0.5,1.5 V 340 h 1.06 v -6.48 h -1.06 v 1 c 0,0 -0.39,-0.59 -0.9,-0.88 0,0 -0.51,-0.28 -1.19,-0.28 0,0 -1.12,0 -1.7,0.69 0,0 -0.57,0.69 -0.57,2.03 m 2.68,4.08 z"
       style="fill:#000000;fill-opacity:1;fill-rule:nonzero;stroke:none"
       transform="matrix(1.3333333,0,0,-1.3333333,0,533.33333)" />
    <path
       id="path144"
       d="m 301.81,342.53 h 1.06 v -9.01 h -1.06 z"
       style="fill:#000000;fill-opacity:1;fill-rule:nonzero;stroke:none"
       transform="matrix(1.3333333,0,0,-1.3333333,0,533.33333)" />
    <path
       id="path145"
       d="m 308.05,336.78 c 0,0 -1.29,0 -1.79,-0.29 0,0 -0.5,-0.3 -0.5,-1.01 0,0 0,-0.57 0.37,-0.9 0,0 0.38,-0.33 1.02,-0.33 0,0 0.88,0 1.42,0.62 0,0 0.53,0.63 0.53,1.67 v 0.24 h -1.05 m 2.12,0.44 v -3.7 h -1.07 v 0.99 c 0,0 -0.36,-0.59 -0.9,-0.88 0,0 -0.55,-0.27 -1.33,-0.27 0,0 -1,0 -1.59,0.55 0,0 -0.58,0.56 -0.58,1.5 0,0 0,1.09 0.72,1.65 0,0 0.74,0.55 2.19,0.55 h 1.49 v 0.11 c 0,0 0,0.73 -0.48,1.13 0,0 -0.48,0.41 -1.36,0.41 0,0 -0.55,0 -1.08,-0.14 0,0 -0.52,-0.13 -1.01,-0.39 v 0.98 c 0,0 0.58,0.22 1.13,0.33 0,0 0.55,0.12 1.07,0.12 0,0 1.41,0 2.11,-0.73 0,0 0.69,-0.73 0.69,-2.21 z"
       style="fill:#000000;fill-opacity:1;fill-rule:nonzero;stroke:none"
       transform="matrix(1.3333333,0,0,-1.3333333,0,533.33333)" />
    <path
       id="path146"
       d="M 313.42,341.84 V 340 h 2.19 v -0.82 h -2.19 v -3.52 c 0,0 0,-0.79 0.21,-1.02 0,0 0.22,-0.23 0.89,-0.23 h 1.09 v -0.89 h -1.09 c 0,0 -1.24,0 -1.71,0.46 0,0 -0.46,0.46 -0.46,1.68 v 3.52 h -0.79 V 340 h 0.79 v 1.84 z"
       style="fill:#000000;fill-opacity:1;fill-rule:nonzero;stroke:none"
       transform="matrix(1.3333333,0,0,-1.3333333,0,533.33333)" />
    <path
       id="path147"
       d="m 317.01,340 h 1.06 v -6.48 h -1.06 V 340 m 0,2.53 h 1.06 v -1.35 h -1.06 z"
       style="fill:#000000;fill-opacity:1;fill-rule:nonzero;stroke:none"
       transform="matrix(1.3333333,0,0,-1.3333333,0,533.33333)" />
    <path
       id="path148"
       d="m 322.81,339.26 c 0,0 -0.85,0 -1.35,-0.67 0,0 -0.5,-0.67 -0.5,-1.83 0,0 0,-1.17 0.49,-1.84 0,0 0.5,-0.66 1.36,-0.66 0,0 0.85,0 1.35,0.67 0,0 0.5,0.67 0.5,1.83 0,0 0,1.15 -0.5,1.82 0,0 -0.5,0.68 -1.35,0.68 m 0,0.9 c 0,0 1.39,0 2.19,-0.9 0,0 0.79,-0.91 0.79,-2.5 0,0 0,-1.59 -0.79,-2.5 0,0 -0.8,-0.9 -2.19,-0.9 0,0 -1.39,0 -2.18,0.9 0,0 -0.79,0.91 -0.79,2.5 0,0 0,1.59 0.79,2.5 0,0 0.79,0.9 2.18,0.9 z"
       style="fill:#000000;fill-opacity:1;fill-rule:nonzero;stroke:none"
       transform="matrix(1.3333333,0,0,-1.3333333,0,533.33333)" />
    <path
       id="path149"
       d="m 332.94,337.43 v -3.91 h -1.06 v 3.88 c 0,0 0,0.92 -0.36,1.38 0,0 -0.36,0.45 -1.08,0.45 0,0 -0.86,0 -1.36,-0.55 0,0 -0.5,-0.54 -0.5,-1.49 v -3.67 h -1.07 V 340 h 1.07 v -1 c 0,0 0.39,0.58 0.9,0.87 0,0 0.52,0.29 1.2,0.29 0,0 1.12,0 1.69,-0.69 0,0 0.57,-0.69 0.57,-2.04 z"
       style="fill:#000000;fill-opacity:1;fill-rule:nonzero;stroke:none"
       transform="matrix(1.3333333,0,0,-1.3333333,0,533.33333)" />
    <path
       id="path150"
       d="m 99.99,330 c -2.82,0 -5.12,-2.29 -5.12,-5.12 0,-2.82 2.3,-5.12 5.12,-5.12 2.83,0 5.12,2.3 5.12,5.12 0,2.83 -2.29,5.12 -5.12,5.12 z"
       style="fill:#c371d2;fill-opacity:1;fill-rule:evenodd;stroke:#000000;stroke-width:0.9102;stroke-linecap:round;stroke-linejoin:round;stroke-miterlimit:10;stroke-dasharray:none;stroke-opacity:1"
       transform="matrix(1.3333333,0,0,-1.3333333,0,533.33333)" />
    <path
       id="path151"
       d="m 128.25,323.88 c 0,0 0,1.16 -0.48,1.79 0,0 -0.48,0.64 -1.34,0.64 0,0 -0.85,0 -1.33,-0.64 0,0 -0.48,-0.63 -0.48,-1.79 0,0 0,-1.15 0.48,-1.79 0,0 0.48,-0.64 1.33,-0.64 0,0 0.86,0 1.34,0.64 0,0 0.48,0.64 0.48,1.79 m 1.06,-2.51 c 0,0 0,-1.66 -0.73,-2.46 0,0 -0.74,-0.81 -2.25,-0.81 0,0 -0.56,0 -1.06,0.08 0,0 -0.5,0.09 -0.97,0.26 v 1.03 c 0,0 0.47,-0.25 0.93,-0.37 0,0 0.46,-0.12 0.93,-0.12 0,0 1.05,0 1.57,0.55 0,0 0.52,0.54 0.52,1.65 v 0.52 c 0,0 -0.33,-0.57 -0.85,-0.85 0,0 -0.51,-0.29 -1.23,-0.29 0,0 -1.19,0 -1.92,0.91 0,0 -0.73,0.91 -0.73,2.41 0,0 0,1.5 0.73,2.41 0,0 0.73,0.91 1.92,0.91 0,0 0.72,0 1.23,-0.28 0,0 0.52,-0.29 0.85,-0.86 v 0.98 h 1.06 z"
       style="fill:#000000;fill-opacity:1;fill-rule:nonzero;stroke:none"
       transform="matrix(1.3333333,0,0,-1.3333333,0,533.33333)" />
    <path
       id="path152"
       d="m 134.45,323.82 c 0,0 -1.29,0 -1.79,-0.29 0,0 -0.49,-0.3 -0.49,-1.01 0,0 0,-0.57 0.37,-0.9 0,0 0.37,-0.33 1.02,-0.33 0,0 0.88,0 1.41,0.62 0,0 0.54,0.63 0.54,1.67 v 0.24 h -1.06 m 2.13,0.44 v -3.7 h -1.07 v 0.99 c 0,0 -0.36,-0.59 -0.91,-0.88 0,0 -0.54,-0.27 -1.33,-0.27 0,0 -0.99,0 -1.58,0.55 0,0 -0.59,0.56 -0.59,1.5 0,0 0,1.09 0.73,1.65 0,0 0.74,0.55 2.19,0.55 h 1.49 v 0.11 c 0,0 0,0.73 -0.48,1.13 0,0 -0.48,0.41 -1.36,0.41 0,0 -0.55,0 -1.08,-0.14 0,0 -0.53,-0.13 -1.01,-0.39 v 0.98 c 0,0 0.58,0.22 1.13,0.33 0,0 0.55,0.12 1.07,0.12 0,0 1.41,0 2.1,-0.73 0,0 0.7,-0.73 0.7,-2.21 z"
       style="fill:#000000;fill-opacity:1;fill-rule:nonzero;stroke:none"
       transform="matrix(1.3333333,0,0,-1.3333333,0,533.33333)" />
    <path
       id="path153"
       d="m 143.82,325.8 c 0,0 0.4,0.72 0.95,1.06 0,0 0.56,0.34 1.31,0.34 0,0 1.01,0 1.56,-0.71 0,0 0.55,-0.71 0.55,-2.02 v -3.91 h -1.07 v 3.88 c 0,0 0,0.93 -0.33,1.38 0,0 -0.33,0.45 -1.01,0.45 0,0 -0.82,0 -1.3,-0.55 0,0 -0.48,-0.54 -0.48,-1.49 v -3.67 h -1.07 v 3.88 c 0,0 0,0.94 -0.33,1.38 0,0 -0.33,0.45 -1.02,0.45 0,0 -0.82,0 -1.3,-0.55 0,0 -0.48,-0.55 -0.48,-1.49 v -3.67 h -1.07 v 6.48 h 1.07 v -1 c 0,0 0.36,0.59 0.87,0.88 0,0 0.51,0.28 1.21,0.28 0,0 0.71,0 1.2,-0.36 0,0 0.5,-0.36 0.74,-1.04 z"
       style="fill:#000000;fill-opacity:1;fill-rule:nonzero;stroke:none"
       transform="matrix(1.3333333,0,0,-1.3333333,0,533.33333)" />
    <path
       id="path154"
       d="m 155.36,325.8 c 0,0 0.4,0.72 0.96,1.06 0,0 0.55,0.34 1.3,0.34 0,0 1.02,0 1.57,-0.71 0,0 0.55,-0.71 0.55,-2.02 v -3.91 h -1.07 v 3.88 c 0,0 0,0.93 -0.33,1.38 0,0 -0.33,0.45 -1.01,0.45 0,0 -0.83,0 -1.31,-0.55 0,0 -0.48,-0.54 -0.48,-1.49 v -3.67 h -1.07 v 3.88 c 0,0 0,0.94 -0.33,1.38 0,0 -0.33,0.45 -1.02,0.45 0,0 -0.81,0 -1.29,-0.55 0,0 -0.48,-0.55 -0.48,-1.49 v -3.67 h -1.08 v 6.48 h 1.08 v -1 c 0,0 0.36,0.59 0.87,0.88 0,0 0.51,0.28 1.21,0.28 0,0 0.7,0 1.2,-0.36 0,0 0.49,-0.36 0.73,-1.04 z"
       style="fill:#000000;fill-opacity:1;fill-rule:nonzero;stroke:none"
       transform="matrix(1.3333333,0,0,-1.3333333,0,533.33333)" />
    <path
       id="path155"
       d="m 164.81,323.82 c 0,0 -1.29,0 -1.79,-0.29 0,0 -0.5,-0.3 -0.5,-1.01 0,0 0,-0.57 0.37,-0.9 0,0 0.38,-0.33 1.02,-0.33 0,0 0.88,0 1.42,0.62 0,0 0.53,0.63 0.53,1.67 v 0.24 h -1.05 m 2.12,0.44 v -3.7 h -1.07 v 0.99 c 0,0 -0.36,-0.59 -0.9,-0.88 0,0 -0.55,-0.27 -1.33,-0.27 0,0 -1,0 -1.59,0.55 0,0 -0.58,0.56 -0.58,1.5 0,0 0,1.09 0.72,1.65 0,0 0.74,0.55 2.19,0.55 h 1.49 v 0.11 c 0,0 0,0.73 -0.48,1.13 0,0 -0.48,0.41 -1.36,0.41 0,0 -0.55,0 -1.08,-0.14 0,0 -0.52,-0.13 -1.01,-0.39 v 0.98 c 0,0 0.58,0.22 1.13,0.33 0,0 0.55,0.12 1.07,0.12 0,0 1.41,0 2.11,-0.73 0,0 0.69,-0.73 0.69,-2.21 z"
       style="fill:#000000;fill-opacity:1;fill-rule:nonzero;stroke:none"
       transform="matrix(1.3333333,0,0,-1.3333333,0,533.33333)" />
    <path
       id="path156"
       d="m 169.39,322.03 h 1.23 v -0.99 l -0.95,-1.85 h -0.75 l 0.47,1.85 z"
       style="fill:#000000;fill-opacity:1;fill-rule:nonzero;stroke:none"
       transform="matrix(1.3333333,0,0,-1.3333333,0,533.33333)" />
    <path
       id="path157"
       d="m 176.7,329.2 h 1.75 l 2.2,-5.88 2.22,5.88 h 1.74 v -8.64 h -1.14 v 7.59 l -2.23,-5.93 h -1.17 l -2.23,5.93 v -7.59 h -1.14 z"
       style="fill:#000000;fill-opacity:1;fill-rule:nonzero;stroke:none"
       transform="matrix(1.3333333,0,0,-1.3333333,0,533.33333)" />
    <path
       id="path158"
       d="m 189.83,323.82 c 0,0 -1.29,0 -1.79,-0.29 0,0 -0.5,-0.3 -0.5,-1.01 0,0 0,-0.57 0.37,-0.9 0,0 0.38,-0.33 1.02,-0.33 0,0 0.89,0 1.42,0.62 0,0 0.54,0.63 0.54,1.67 v 0.24 h -1.06 m 2.12,0.44 v -3.7 h -1.06 v 0.99 c 0,0 -0.37,-0.59 -0.91,-0.88 0,0 -0.54,-0.27 -1.33,-0.27 0,0 -1,0 -1.59,0.55 0,0 -0.58,0.56 -0.58,1.5 0,0 0,1.09 0.73,1.65 0,0 0.73,0.55 2.18,0.55 h 1.5 v 0.11 c 0,0 0,0.73 -0.49,1.13 0,0 -0.48,0.41 -1.35,0.41 0,0 -0.56,0 -1.08,-0.14 0,0 -0.53,-0.13 -1.02,-0.39 v 0.98 c 0,0 0.59,0.22 1.14,0.33 0,0 0.55,0.12 1.07,0.12 0,0 1.4,0 2.1,-0.73 0,0 0.69,-0.73 0.69,-2.21 z"
       style="fill:#000000;fill-opacity:1;fill-rule:nonzero;stroke:none"
       transform="matrix(1.3333333,0,0,-1.3333333,0,533.33333)" />
    <path
       id="path159"
       d="m 199.53,327.04 -2.34,-3.15 2.47,-3.33 h -1.26 l -1.89,2.55 -1.88,-2.55 h -1.26 l 2.52,3.39 -2.31,3.09 h 1.26 l 1.72,-2.3 1.72,2.3 z"
       style="fill:#000000;fill-opacity:1;fill-rule:nonzero;stroke:none"
       transform="matrix(1.3333333,0,0,-1.3333333,0,533.33333)" />
    <path
       id="path160"
       d="m 201.16,327.04 h 1.06 v -6.48 h -1.06 v 6.48 m 0,2.53 h 1.06 v -1.35 h -1.06 z"
       style="fill:#000000;fill-opacity:1;fill-rule:nonzero;stroke:none"
       transform="matrix(1.3333333,0,0,-1.3333333,0,533.33333)" />
    <path
       id="path161"
       d="m 209.5,325.8 c 0,0 0.4,0.72 0.95,1.06 0,0 0.56,0.34 1.31,0.34 0,0 1.01,0 1.56,-0.71 0,0 0.55,-0.71 0.55,-2.02 v -3.91 h -1.07 v 3.88 c 0,0 0,0.93 -0.33,1.38 0,0 -0.33,0.45 -1,0.45 0,0 -0.83,0 -1.31,-0.55 0,0 -0.48,-0.54 -0.48,-1.49 v -3.67 h -1.07 v 3.88 c 0,0 0,0.94 -0.33,1.38 0,0 -0.33,0.45 -1.02,0.45 0,0 -0.82,0 -1.3,-0.55 0,0 -0.48,-0.55 -0.48,-1.49 v -3.67 h -1.07 v 6.48 h 1.07 v -1 c 0,0 0.37,0.59 0.88,0.88 0,0 0.51,0.28 1.21,0.28 0,0 0.7,0 1.19,-0.36 0,0 0.5,-0.36 0.74,-1.04 z"
       style="fill:#000000;fill-opacity:1;fill-rule:nonzero;stroke:none"
       transform="matrix(1.3333333,0,0,-1.3333333,0,533.33333)" />
    <path
       id="path162"
       d="m 215.89,323.12 v 3.92 h 1.06 v -3.88 c 0,0 0,-0.92 0.36,-1.38 0,0 0.36,-0.46 1.08,-0.46 0,0 0.86,0 1.36,0.55 0,0 0.5,0.55 0.5,1.5 v 3.67 h 1.07 v -6.48 h -1.07 v 1 c 0,0 -0.39,-0.59 -0.9,-0.88 0,0 -0.51,-0.28 -1.19,-0.28 0,0 -1.11,0 -1.69,0.69 0,0 -0.58,0.69 -0.58,2.03 m 2.68,4.08 z"
       style="fill:#000000;fill-opacity:1;fill-rule:nonzero;stroke:none"
       transform="matrix(1.3333333,0,0,-1.3333333,0,533.33333)" />
    <path
       id="path163"
       d="m 228.56,325.8 c 0,0 0.39,0.72 0.95,1.06 0,0 0.56,0.34 1.31,0.34 0,0 1.01,0 1.56,-0.71 0,0 0.55,-0.71 0.55,-2.02 v -3.91 h -1.07 v 3.88 c 0,0 0,0.93 -0.33,1.38 0,0 -0.33,0.45 -1.01,0.45 0,0 -0.82,0 -1.3,-0.55 0,0 -0.49,-0.54 -0.49,-1.49 v -3.67 h -1.07 v 3.88 c 0,0 0,0.94 -0.33,1.38 0,0 -0.33,0.45 -1.01,0.45 0,0 -0.82,0 -1.3,-0.55 0,0 -0.48,-0.55 -0.48,-1.49 v -3.67 h -1.07 v 6.48 h 1.07 v -1 c 0,0 0.36,0.59 0.87,0.88 0,0 0.51,0.28 1.21,0.28 0,0 0.71,0 1.2,-0.36 0,0 0.5,-0.36 0.74,-1.04 z"
       style="fill:#000000;fill-opacity:1;fill-rule:nonzero;stroke:none"
       transform="matrix(1.3333333,0,0,-1.3333333,0,533.33333)" />
    <path
       id="path164"
       d="m 238.82,327.04 h 1.07 v -6.48 h -1.07 v 6.48 m 0,2.53 h 1.07 v -1.35 h -1.07 z"
       style="fill:#000000;fill-opacity:1;fill-rule:nonzero;stroke:none"
       transform="matrix(1.3333333,0,0,-1.3333333,0,533.33333)" />
    <path
       id="path165"
       d="m 247.5,324.47 v -3.91 h -1.06 v 3.88 c 0,0 0,0.92 -0.36,1.38 0,0 -0.36,0.45 -1.08,0.45 0,0 -0.86,0 -1.36,-0.55 0,0 -0.5,-0.54 -0.5,-1.49 v -3.67 h -1.07 v 6.48 h 1.07 v -1 c 0,0 0.39,0.58 0.9,0.87 0,0 0.52,0.29 1.2,0.29 0,0 1.12,0 1.69,-0.69 0,0 0.57,-0.69 0.57,-2.04 z"
       style="fill:#000000;fill-opacity:1;fill-rule:nonzero;stroke:none"
       transform="matrix(1.3333333,0,0,-1.3333333,0,533.33333)" />
    <path
       id="path166"
       d="m 252.91,329.57 v -0.89 h -1.02 c 0,0 -0.57,0 -0.8,-0.23 0,0 -0.22,-0.23 -0.22,-0.83 v -0.58 h 1.75 v -0.82 h -1.75 v -5.66 h -1.07 v 5.66 h -1.02 v 0.82 h 1.02 v 0.46 c 0,0 0,1.08 0.5,1.57 0,0 0.51,0.5 1.6,0.5 z"
       style="fill:#000000;fill-opacity:1;fill-rule:nonzero;stroke:none"
       transform="matrix(1.3333333,0,0,-1.3333333,0,533.33333)" />
    <path
       id="path167"
       d="m 259.34,324.07 v -0.52 h -4.89 c 0,0 0.07,-1.1 0.66,-1.68 0,0 0.59,-0.57 1.65,-0.57 0,0 0.61,0 1.19,0.15 0,0 0.58,0.15 1.14,0.45 v -1.01 c 0,0 -0.57,-0.24 -1.17,-0.37 0,0 -0.6,-0.12 -1.22,-0.12 0,0 -1.55,0 -2.46,0.9 0,0 -0.9,0.9 -0.9,2.44 0,0 0,1.59 0.85,2.52 0,0 0.86,0.94 2.32,0.94 0,0 1.31,0 2.07,-0.84 0,0 0.76,-0.84 0.76,-2.29 m -1.06,0.31 c 0,0 -0.01,0.88 -0.49,1.4 0,0 -0.48,0.52 -1.27,0.52 0,0 -0.89,0 -1.43,-0.51 0,0 -0.53,-0.5 -0.61,-1.41 z"
       style="fill:#000000;fill-opacity:1;fill-rule:nonzero;stroke:none"
       transform="matrix(1.3333333,0,0,-1.3333333,0,533.33333)" />
    <path
       id="path168"
       d="m 265.75,326.8 v -1 c 0,0 -0.45,0.25 -0.9,0.37 0,0 -0.46,0.13 -0.92,0.13 0,0 -1.03,0 -1.61,-0.66 0,0 -0.57,-0.66 -0.57,-1.84 0,0 0,-1.19 0.57,-1.85 0,0 0.58,-0.65 1.61,-0.65 0,0 0.46,0 0.92,0.12 0,0 0.45,0.13 0.9,0.38 v -0.99 c 0,0 -0.44,-0.21 -0.92,-0.31 0,0 -0.48,-0.1 -1.01,-0.1 0,0 -1.47,0 -2.33,0.92 0,0 -0.86,0.92 -0.86,2.48 0,0 0,1.58 0.87,2.49 0,0 0.87,0.91 2.39,0.91 0,0 0.49,0 0.96,-0.1 0,0 0.46,-0.1 0.9,-0.3 z"
       style="fill:#000000;fill-opacity:1;fill-rule:nonzero;stroke:none"
       transform="matrix(1.3333333,0,0,-1.3333333,0,533.33333)" />
    <path
       id="path169"
       d="m 268.66,328.88 v -1.84 h 2.19 v -0.82 h -2.19 v -3.52 c 0,0 0,-0.79 0.21,-1.02 0,0 0.22,-0.23 0.89,-0.23 h 1.09 v -0.89 h -1.09 c 0,0 -1.23,0 -1.7,0.46 0,0 -0.47,0.46 -0.47,1.68 v 3.52 h -0.78 v 0.82 h 0.78 v 1.84 z"
       style="fill:#000000;fill-opacity:1;fill-rule:nonzero;stroke:none"
       transform="matrix(1.3333333,0,0,-1.3333333,0,533.33333)" />
    <path
       id="path170"
       d="m 277.8,324.07 v -0.52 h -4.9 c 0,0 0.07,-1.1 0.66,-1.68 0,0 0.6,-0.57 1.66,-0.57 0,0 0.61,0 1.18,0.15 0,0 0.58,0.15 1.15,0.45 v -1.01 c 0,0 -0.57,-0.24 -1.18,-0.37 0,0 -0.6,-0.12 -1.22,-0.12 0,0 -1.55,0 -2.46,0.9 0,0 -0.9,0.9 -0.9,2.44 0,0 0,1.59 0.86,2.52 0,0 0.86,0.94 2.32,0.94 0,0 1.31,0 2.06,-0.84 0,0 0.77,-0.84 0.77,-2.29 m -1.07,0.31 c 0,0 -0.01,0.88 -0.49,1.4 0,0 -0.47,0.52 -1.26,0.52 0,0 -0.89,0 -1.43,-0.51 0,0 -0.53,-0.5 -0.61,-1.41 z"
       style="fill:#000000;fill-opacity:1;fill-rule:nonzero;stroke:none"
       transform="matrix(1.3333333,0,0,-1.3333333,0,533.33333)" />
    <path
       id="path171"
       d="m 283.81,326.06 v 3.51 h 1.06 v -9.01 h -1.06 v 0.98 c 0,0 -0.34,-0.58 -0.85,-0.87 0,0 -0.51,-0.27 -1.23,-0.27 0,0 -1.17,0 -1.91,0.93 0,0 -0.74,0.94 -0.74,2.47 0,0 0,1.53 0.74,2.46 0,0 0.74,0.94 1.91,0.94 0,0 0.72,0 1.23,-0.28 0,0 0.51,-0.28 0.85,-0.86 m -3.63,-2.26 c 0,0 0,-1.18 0.48,-1.85 0,0 0.49,-0.66 1.33,-0.66 0,0 0.85,0 1.33,0.66 0,0 0.49,0.67 0.49,1.85 0,0 0,1.17 -0.49,1.84 0,0 -0.48,0.67 -1.33,0.67 0,0 -0.84,0 -1.33,-0.67 0,0 -0.48,-0.67 -0.48,-1.84 z"
       style="fill:#000000;fill-opacity:1;fill-rule:nonzero;stroke:none"
       transform="matrix(1.3333333,0,0,-1.3333333,0,533.33333)" />
    <path
       id="path172"
       d="m 291.87,321.54 v -3.44 h -1.08 v 8.94 h 1.08 v -0.98 c 0,0 0.33,0.58 0.84,0.86 0,0 0.52,0.28 1.23,0.28 0,0 1.18,0 1.91,-0.94 0,0 0.74,-0.93 0.74,-2.46 0,0 0,-1.53 -0.74,-2.47 0,0 -0.73,-0.93 -1.91,-0.93 0,0 -0.71,0 -1.23,0.27 0,0 -0.51,0.29 -0.84,0.87 m 3.62,2.26 c 0,0 0,1.17 -0.49,1.84 0,0 -0.48,0.67 -1.32,0.67 0,0 -0.85,0 -1.33,-0.67 0,0 -0.48,-0.67 -0.48,-1.84 0,0 0,-1.18 0.48,-1.85 0,0 0.48,-0.66 1.33,-0.66 0,0 0.84,0 1.32,0.66 0,0 0.49,0.67 0.49,1.85 z"
       style="fill:#000000;fill-opacity:1;fill-rule:nonzero;stroke:none"
       transform="matrix(1.3333333,0,0,-1.3333333,0,533.33333)" />
    <path
       id="path173"
       d="m 300.87,326.3 c 0,0 -0.86,0 -1.35,-0.67 0,0 -0.5,-0.67 -0.5,-1.83 0,0 0,-1.17 0.49,-1.84 0,0 0.5,-0.66 1.36,-0.66 0,0 0.85,0 1.35,0.67 0,0 0.5,0.67 0.5,1.83 0,0 0,1.15 -0.5,1.82 0,0 -0.5,0.68 -1.35,0.68 m 0,0.9 c 0,0 1.39,0 2.18,-0.9 0,0 0.79,-0.91 0.79,-2.5 0,0 0,-1.59 -0.79,-2.5 0,0 -0.79,-0.9 -2.18,-0.9 0,0 -1.39,0 -2.19,0.9 0,0 -0.78,0.91 -0.78,2.5 0,0 0,1.59 0.78,2.5 0,0 0.8,0.9 2.19,0.9 z"
       style="fill:#000000;fill-opacity:1;fill-rule:nonzero;stroke:none"
       transform="matrix(1.3333333,0,0,-1.3333333,0,533.33333)" />
    <path
       id="path174"
       d="m 306.64,321.54 v -3.44 h -1.07 v 8.94 h 1.07 v -0.98 c 0,0 0.34,0.58 0.84,0.86 0,0 0.52,0.28 1.23,0.28 0,0 1.18,0 1.92,-0.94 0,0 0.74,-0.93 0.74,-2.46 0,0 0,-1.53 -0.74,-2.47 0,0 -0.74,-0.93 -1.92,-0.93 0,0 -0.71,0 -1.23,0.27 0,0 -0.5,0.29 -0.84,0.87 m 3.62,2.26 c 0,0 0,1.17 -0.48,1.84 0,0 -0.48,0.67 -1.33,0.67 0,0 -0.84,0 -1.33,-0.67 0,0 -0.48,-0.67 -0.48,-1.84 0,0 0,-1.18 0.48,-1.85 0,0 0.49,-0.66 1.33,-0.66 0,0 0.85,0 1.33,0.66 0,0 0.48,0.67 0.48,1.85 z"
       style="fill:#000000;fill-opacity:1;fill-rule:nonzero;stroke:none"
       transform="matrix(1.3333333,0,0,-1.3333333,0,533.33333)" />
    <path
       id="path175"
       d="m 313.02,323.12 v 3.92 h 1.07 v -3.88 c 0,0 0,-0.92 0.36,-1.38 0,0 0.35,-0.46 1.07,-0.46 0,0 0.86,0 1.36,0.55 0,0 0.51,0.55 0.51,1.5 v 3.67 h 1.06 v -6.48 h -1.06 v 1 c 0,0 -0.39,-0.59 -0.91,-0.88 0,0 -0.51,-0.28 -1.18,-0.28 0,0 -1.12,0 -1.7,0.69 0,0 -0.58,0.69 -0.58,2.03 m 2.68,4.08 z"
       style="fill:#000000;fill-opacity:1;fill-rule:nonzero;stroke:none"
       transform="matrix(1.3333333,0,0,-1.3333333,0,533.33333)" />
    <path
       id="path176"
       d="m 320.64,329.57 h 1.07 v -9.01 h -1.07 z"
       style="fill:#000000;fill-opacity:1;fill-rule:nonzero;stroke:none"
       transform="matrix(1.3333333,0,0,-1.3333333,0,533.33333)" />
    <path
       id="path177"
       d="m 326.88,323.82 c 0,0 -1.29,0 -1.79,-0.29 0,0 -0.49,-0.3 -0.49,-1.01 0,0 0,-0.57 0.37,-0.9 0,0 0.37,-0.33 1.02,-0.33 0,0 0.88,0 1.41,0.62 0,0 0.54,0.63 0.54,1.67 v 0.24 h -1.06 m 2.13,0.44 v -3.7 h -1.07 v 0.99 c 0,0 -0.36,-0.59 -0.91,-0.88 0,0 -0.54,-0.27 -1.33,-0.27 0,0 -0.99,0 -1.58,0.55 0,0 -0.59,0.56 -0.59,1.5 0,0 0,1.09 0.73,1.65 0,0 0.74,0.55 2.19,0.55 h 1.49 v 0.11 c 0,0 0,0.73 -0.48,1.13 0,0 -0.48,0.41 -1.36,0.41 0,0 -0.55,0 -1.08,-0.14 0,0 -0.53,-0.13 -1.01,-0.39 v 0.98 c 0,0 0.58,0.22 1.13,0.33 0,0 0.55,0.12 1.07,0.12 0,0 1.41,0 2.1,-0.73 0,0 0.7,-0.73 0.7,-2.21 z"
       style="fill:#000000;fill-opacity:1;fill-rule:nonzero;stroke:none"
       transform="matrix(1.3333333,0,0,-1.3333333,0,533.33333)" />
    <path
       id="path178"
       d="m 332.25,328.88 v -1.84 h 2.2 v -0.82 h -2.2 v -3.52 c 0,0 0,-0.79 0.22,-1.02 0,0 0.22,-0.23 0.88,-0.23 h 1.1 v -0.89 h -1.1 c 0,0 -1.23,0 -1.7,0.46 0,0 -0.47,0.46 -0.47,1.68 v 3.52 h -0.78 v 0.82 h 0.78 v 1.84 z"
       style="fill:#000000;fill-opacity:1;fill-rule:nonzero;stroke:none"
       transform="matrix(1.3333333,0,0,-1.3333333,0,533.33333)" />
    <path
       id="path179"
       d="m 335.85,327.04 h 1.06 v -6.48 h -1.06 v 6.48 m 0,2.53 h 1.06 v -1.35 h -1.06 z"
       style="fill:#000000;fill-opacity:1;fill-rule:nonzero;stroke:none"
       transform="matrix(1.3333333,0,0,-1.3333333,0,533.33333)" />
    <path
       id="path180"
       d="m 341.65,326.3 c 0,0 -0.86,0 -1.35,-0.67 0,0 -0.5,-0.67 -0.5,-1.83 0,0 0,-1.17 0.49,-1.84 0,0 0.5,-0.66 1.36,-0.66 0,0 0.85,0 1.35,0.67 0,0 0.5,0.67 0.5,1.83 0,0 0,1.15 -0.5,1.82 0,0 -0.5,0.68 -1.35,0.68 m 0,0.9 c 0,0 1.39,0 2.18,-0.9 0,0 0.8,-0.91 0.8,-2.5 0,0 0,-1.59 -0.8,-2.5 0,0 -0.79,-0.9 -2.18,-0.9 0,0 -1.39,0 -2.19,0.9 0,0 -0.78,0.91 -0.78,2.5 0,0 0,1.59 0.78,2.5 0,0 0.8,0.9 2.19,0.9 z"
       style="fill:#000000;fill-opacity:1;fill-rule:nonzero;stroke:none"
       transform="matrix(1.3333333,0,0,-1.3333333,0,533.33333)" />
    <path
       id="path181"
       d="m 351.78,324.47 v -3.91 h -1.07 v 3.88 c 0,0 0,0.92 -0.36,1.38 0,0 -0.35,0.45 -1.07,0.45 0,0 -0.86,0 -1.36,-0.55 0,0 -0.5,-0.54 -0.5,-1.49 v -3.67 h -1.07 v 6.48 h 1.07 v -1 c 0,0 0.38,0.58 0.9,0.87 0,0 0.52,0.29 1.2,0.29 0,0 1.11,0 1.69,-0.69 0,0 0.57,-0.69 0.57,-2.04 z"
       style="fill:#000000;fill-opacity:1;fill-rule:nonzero;stroke:none"
       transform="matrix(1.3333333,0,0,-1.3333333,0,533.33333)" />
    <text
       xml:space="preserve"
       style="font-size:18.6667px;line-height:1.25;font-family:sans-serif;-inkscape-font-specification:sans-serif"
       x="238.9368"
       y="180.49666"
       id="text185"><tspan
         sodipodi:role="line"
         id="tspan185"
         x="238.9368"
         y="180.49666"
         style="font-size:18.6667px">parameters with nonlinear and/or interaction effects</tspan></text>
    <text
       xml:space="preserve"
       style="font-size:18.6667px;line-height:1.25;font-family:sans-serif;-inkscape-font-specification:sans-serif"
       x="103.63206"
       y="390.18103"
       id="text186"><tspan
         sodipodi:role="line"
         id="tspan186"
         x="103.63206"
         y="390.18103"
         style="font-size:18.6667px">noninfluential parameters</tspan></text>
    <text
       xml:space="preserve"
       style="font-size:18.6667px;line-height:1.25;font-family:sans-serif;-inkscape-font-specification:sans-serif"
       x="430.41"
       y="367.10034"
       id="text187"><tspan
         sodipodi:role="line"
         id="tspan187"
         x="430.41"
         y="367.10034"
         style="font-size:18.6667px">parameters with linear effects</tspan></text>
  </g>
</svg>
